<svg width="0" height="0" class="hidden">
<symbol  xmlns="http://www.w3.org/2000/svg" viewBox="0 0 24 24" id="tasks">
    <path d="M3.636 1.044c-1.178.12-2.265 1.087-2.538 2.257-.085.364-.085 1.034 0 1.398.241 1.035 1.168 1.962 2.203 2.203.364.085 1.034.085 1.398 0 1.035-.241 1.962-1.168 2.203-2.203.085-.364.085-1.034 0-1.398-.192-.825-.841-1.617-1.639-2.001-.475-.228-1.034-.316-1.627-.256m.785 2.031c.367.166.577.504.577.925 0 .593-.405.998-.998.998S3.002 4.593 3.002 4s.405-.998.998-.998c.166 0 .318.026.421.073M9.8 3.044c-.358.07-.688.406-.755.766a.982.982 0 0 0 .798 1.151c.147.027 2.293.037 6.3.03 6.725-.012 6.191.01 6.507-.268a.976.976 0 0 0 0-1.446c-.316-.278.224-.256-6.55-.263-3.435-.003-6.199.01-6.3.03m-6.164 6c-1.178.12-2.262 1.084-2.539 2.257-.085.362-.085 1.031.001 1.398.242 1.035 1.168 1.962 2.203 2.203.364.085 1.034.085 1.398 0 1.035-.241 1.962-1.168 2.203-2.203.085-.364.085-1.034 0-1.398-.192-.825-.841-1.617-1.639-2.001-.475-.228-1.034-.316-1.627-.256m.785 2.031c.367.166.577.504.577.925 0 .593-.405.998-.998.998s-.998-.405-.998-.998.405-.998.998-.998c.166 0 .318.026.421.073m5.379-.031c-.358.07-.688.406-.755.766a.982.982 0 0 0 .798 1.151c.147.027 2.293.037 6.3.03 6.725-.012 6.191.01 6.507-.268a.976.976 0 0 0 0-1.446c-.316-.278.224-.256-6.55-.263-3.435-.003-6.199.01-6.3.03m-6.164 6c-1.178.12-2.262 1.084-2.539 2.257-.085.362-.085 1.031.001 1.398.242 1.035 1.168 1.962 2.203 2.203.364.085 1.034.085 1.398 0 1.035-.241 1.962-1.168 2.203-2.203.085-.364.085-1.034 0-1.398-.192-.825-.841-1.617-1.639-2.001-.475-.228-1.034-.316-1.627-.256m.785 2.031c.367.166.577.504.577.925 0 .593-.405.998-.998.998s-.998-.405-.998-.998.405-.998.998-.998c.166 0 .318.026.421.073m5.379-.031c-.358.07-.688.406-.755.766a.982.982 0 0 0 .798 1.151c.147.027 2.293.037 6.3.03 6.725-.012 6.191.01 6.507-.268a.976.976 0 0 0 0-1.446c-.316-.278.224-.256-6.55-.263-3.435-.003-6.199.01-6.3.03" fill-rule="evenodd" ></path>
</symbol>
<symbol  xmlns="http://www.w3.org/2000/svg" viewBox="0 0 20 20" id="support">
    <path d="M9.414.034a9.887 9.887 0 0 0-6.466 2.914C1.329 4.567.38 6.524.076 8.87c-.052.402-.058.845-.059 4.43 0 4.264-.003 4.188.168 4.679a2.992 2.992 0 0 0 2.213 1.94c.323.068.881.068 1.204 0a3.014 3.014 0 0 0 2.338-2.404c.033-.177.043-.768.043-2.515s-.01-2.338-.043-2.515c-.274-1.446-1.483-2.457-2.94-2.457-.332 0-.81.072-.941.143-.055.029-.059.005-.059-.345 0-.675.127-1.495.337-2.176a8 8 0 0 1 6.696-5.6 10.431 10.431 0 0 1 1.827-.016 8.015 8.015 0 0 1 6.502 4.801c.412.961.638 2.023.638 2.998 0 .343-.004.367-.059.338-.131-.071-.609-.143-.941-.143-1.457 0-2.666 1.011-2.94 2.457-.033.177-.043.768-.043 2.515 0 2.437.004 2.507.168 2.979a2.992 2.992 0 0 0 2.213 1.94c.323.068.881.068 1.204 0a3.014 3.014 0 0 0 2.338-2.404c.034-.183.043-1.061.043-4.215-.001-4.344.001-4.297-.199-5.282-.56-2.767-2.248-5.135-4.717-6.619C13.431.416 11.38-.079 9.414.034M3.45 12.091c.169.087.369.287.462.459.071.133.071.142.071 2.45 0 2.308 0 2.317-.071 2.45-.092.171-.292.37-.462.462-.193.103-.707.103-.9 0a1.303 1.303 0 0 1-.462-.462c-.071-.133-.071-.142-.071-2.45v-2.317l.074-.139c.125-.234.361-.434.609-.515.154-.05.605-.013.75.062m14 0c.169.087.369.287.462.459.071.133.071.142.071 2.45 0 2.308 0 2.317-.071 2.45-.092.171-.292.37-.462.462-.193.103-.707.103-.9 0a1.303 1.303 0 0 1-.462-.462c-.071-.133-.071-.142-.071-2.45v-2.317l.074-.139c.125-.234.361-.434.609-.515.154-.05.605-.013.75.062" fill-rule="evenodd" ></path>
</symbol>
<symbol  xmlns="http://www.w3.org/2000/svg" viewBox="0 0 24 24" id="stories">
    <path d="M3.636 1.041c-1.187.132-2.238 1.066-2.545 2.26-.066.26-.071.585-.071 4.699s.005 4.439.071 4.699a3.138 3.138 0 0 0 2.21 2.21c.253.064.506.071 2.699.071 2.193 0 2.446-.007 2.699-.071a3.138 3.138 0 0 0 2.21-2.21c.066-.26.071-.585.071-4.699s-.005-4.439-.071-4.699a3.16 3.16 0 0 0-1.645-2c-.567-.273-.558-.272-3.064-.283-1.243-.006-2.397.005-2.564.023m12 0c-1.187.132-2.238 1.066-2.545 2.26-.067.264-.071.744-.071 8.699s.004 8.435.071 8.699a3.138 3.138 0 0 0 2.21 2.21c.253.064.506.071 2.699.071 2.193 0 2.446-.007 2.699-.071a3.138 3.138 0 0 0 2.21-2.21c.067-.264.071-.744.071-8.699s-.004-8.435-.071-8.699a3.16 3.16 0 0 0-1.645-2c-.567-.273-.558-.272-3.064-.283-1.243-.006-2.397.005-2.564.023M8.421 3.075c.205.093.411.299.504.504.069.153.073.381.073 4.421s-.004 4.268-.073 4.421a1.099 1.099 0 0 1-.504.504c-.15.068-.318.073-2.421.073-2.103 0-2.271-.005-2.421-.073a1.099 1.099 0 0 1-.504-.504c-.069-.153-.073-.381-.073-4.421s.004-4.268.073-4.421c.093-.205.299-.411.504-.504.15-.068.318-.073 2.421-.073 2.103 0 2.271.005 2.421.073m12 0c.205.093.411.299.504.504.07.154.073.507.073 8.421s-.003 8.267-.073 8.421a1.099 1.099 0 0 1-.504.504c-.15.068-.318.073-2.421.073-2.103 0-2.271-.005-2.421-.073a1.099 1.099 0 0 1-.504-.504c-.07-.154-.073-.507-.073-8.421s.003-8.267.073-8.421c.093-.205.299-.411.504-.504.15-.068.318-.073 2.421-.073 2.103 0 2.271.005 2.421.073" fill-rule="evenodd" ></path>
</symbol>
<symbol  xmlns="http://www.w3.org/2000/svg" viewBox="0 0 22 20" id="settings">
    <path d="M7.342.037c-1.171.1-2.229.601-3.09 1.464a5.559 5.559 0 0 0-.591.699C3.454 2.515.793 7.286.523 7.828c-.344.69-.492 1.34-.492 2.164 0 .823.148 1.474.492 2.163.27.542 2.931 5.313 3.138 5.628.566.859 1.606 1.631 2.633 1.956.733.231.62.226 4.706.226 3.424 0 3.75-.005 4.07-.066a5.36 5.36 0 0 0 1.99-.821c.367-.242 1.03-.913 1.28-1.295.324-.493 3.126-5.558 3.276-5.921a4.95 4.95 0 0 0 0-3.74c-.15-.364-2.953-5.431-3.275-5.922-.251-.382-.914-1.052-1.281-1.295a5.376 5.376 0 0 0-1.257-.626c-.784-.263-.614-.253-4.565-.262-1.956-.005-3.709.004-3.896.02m7.288 1.981c.845.109 1.657.617 2.109 1.319.346.537 2.973 5.317 3.084 5.61.249.66.249 1.432 0 2.09-.105.277-2.627 4.87-3.053 5.559a3.026 3.026 0 0 1-2.14 1.369c-.365.048-6.895.048-7.26 0a2.992 2.992 0 0 1-2.121-1.351c-.231-.357-2.891-5.156-3.022-5.451-.161-.363-.221-.685-.221-1.171 0-.487.06-.808.221-1.172.132-.297 2.792-5.096 3.025-5.455.472-.73 1.261-1.238 2.087-1.346.336-.043 6.956-.044 7.291-.001M10.528 5.54a4.48 4.48 0 0 0-4.001 4.452c0 2.195 1.582 4.051 3.771 4.422.314.054 1.09.054 1.404 0 2.189-.371 3.771-2.227 3.771-4.422a4.461 4.461 0 0 0-2.034-3.749 4.561 4.561 0 0 0-2.911-.703m1.268 2.066a2.534 2.534 0 0 1 1.46 1.286c.189.393.244.642.244 1.1 0 .457-.055.707-.244 1.1a2.563 2.563 0 0 1-1.46 1.289c-.268.089-.355.1-.796.1-.441 0-.528-.011-.796-.1a2.563 2.563 0 0 1-1.46-1.289c-.189-.393-.244-.643-.244-1.1 0-.458.055-.707.244-1.1a2.529 2.529 0 0 1 1.782-1.374c.3-.064.936-.02 1.27.088" fill-rule="evenodd" ></path>
</symbol>
<symbol  xmlns="http://www.w3.org/2000/svg" viewBox="0 0 24 24" id="projects">
    <path d="M7.58 1.041a5.009 5.009 0 0 0-4.299 3.391c-.277.833-.261.358-.261 7.568 0 7.217-.017 6.734.264 7.576a5.012 5.012 0 0 0 3.148 3.143c.816.272.589.261 5.568.261 4.188 0 4.525-.005 4.86-.073 1.025-.206 1.845-.625 2.556-1.306.79-.756 1.268-1.636 1.491-2.741.068-.337.073-.701.073-5.7 0-4.403-.01-5.368-.055-5.5-.044-.13-.653-.76-3.2-3.311-2.276-2.281-3.195-3.176-3.325-3.24l-.18-.089-3.14-.005c-1.727-.003-3.302.009-3.5.026m5.431 3.689c.021 1.914.03 1.993.29 2.534a3.204 3.204 0 0 0 1.435 1.435c.541.26.62.269 2.534.29l1.73.019v4.698c0 5.295.017 4.979-.311 5.654-.158.326-.239.434-.567.762-.326.326-.438.41-.762.569-.658.324-.403.309-5.36.309-4.957 0-4.702.015-5.36-.309-.324-.159-.436-.243-.762-.569-.326-.326-.41-.438-.569-.762C4.979 18.689 5 19.192 5 12s-.021-6.689.309-7.36c.159-.324.243-.436.569-.762.325-.326.438-.41.762-.57.62-.305.549-.299 3.626-.304L12.992 3l.019 1.73m3.679 2.261c-1.027.013-1.13-.006-1.39-.259-.281-.273-.298-.353-.299-1.412L15 4.38l1.3 1.3 1.301 1.3-.911.011M8.8 12.043a1.02 1.02 0 0 0-.755.767.982.982 0 0 0 .802 1.151c.147.027 1.3.038 3.3.03 3.391-.012 3.195.003 3.503-.268a.976.976 0 0 0 0-1.446c-.309-.271-.105-.256-3.55-.263-1.716-.004-3.201.01-3.3.029m0 4c-.099.02-.251.086-.339.148a.974.974 0 0 0 .392 1.771c.147.027.808.038 1.8.031 1.545-.013 1.57-.014 1.755-.106a.964.964 0 0 0 .56-.887.964.964 0 0 0-.56-.887c-.186-.092-.201-.093-1.808-.1-.891-.004-1.701.01-1.8.03" fill-rule="evenodd" ></path>
</symbol>
<symbol  xmlns="http://www.w3.org/2000/svg" viewBox="0 0 24 20" id="members">
    <path d="M8.34.046a4.934 4.934 0 0 0-1.52.471C5.374 1.226 4.39 2.51 4.075 4.1c-.073.368-.073 1.432 0 1.8A5.076 5.076 0 0 0 8.1 9.925c.368.073 1.432.073 1.8 0 1.823-.361 3.291-1.652 3.853-3.386.187-.578.227-.859.225-1.579-.002-.579-.015-.713-.109-1.091-.191-.765-.495-1.396-.943-1.957A5.04 5.04 0 0 0 8.34.046m6.129.011a.983.983 0 0 0-.708.96.88.88 0 0 0 .315.715c.235.212.315.236.904.27.632.037.816.079 1.28.296.657.308 1.131.78 1.444 1.442a2.873 2.873 0 0 1 0 2.52C17.185 7.357 16.162 8 14.936 8c-.438 0-.614.053-.844.255a.88.88 0 0 0-.331.725.974.974 0 0 0 .718.967c.267.078 1.057.055 1.515-.044 1.786-.386 3.206-1.657 3.759-3.364.187-.578.227-.859.225-1.579-.002-.579-.015-.713-.109-1.091-.386-1.547-1.333-2.709-2.765-3.393-.82-.391-2.025-.583-2.635-.419m-4.713 2.04c.337.092.839.35 1.117.574C11.554 3.219 12 4.14 12 5c0 1.17-.775 2.329-1.849 2.766-1.509.614-3.162-.032-3.853-1.506-.226-.481-.277-.714-.277-1.26s.051-.779.277-1.26a3.033 3.033 0 0 1 2.205-1.7c.267-.049.988-.016 1.253.057M4.34 12.046a4.934 4.934 0 0 0-1.52.471c-1.414.694-2.347 1.881-2.725 3.47-.083.348-.129 3.017-.057 3.284.063.234.271.488.493.603.505.26 1.112.07 1.355-.424.091-.185.095-.228.118-1.59.027-1.55.032-1.583.308-2.156a3.15 3.15 0 0 1 .768-1.002c.248-.213.908-.547 1.24-.628.177-.044 1.086-.054 4.68-.054 4.949 0 4.632-.017 5.26.278a2.905 2.905 0 0 1 1.444 1.442c.261.551.296.815.296 2.214 0 .694.018 1.248.042 1.335.099.358.48.664.875.702.437.042.883-.248 1.021-.665.061-.185.067-.363.052-1.637-.017-1.388-.02-1.441-.124-1.841-.26-1.011-.725-1.808-1.457-2.495a5.095 5.095 0 0 0-2.808-1.311c-.42-.052-8.854-.048-9.261.004m14.14-.009c-.863.263-.978 1.441-.18 1.853.125.064.275.089.68.113.634.037.818.079 1.28.295.657.308 1.131.78 1.444 1.442.261.551.296.815.296 2.214 0 .694.018 1.248.042 1.335.099.358.48.664.875.702.437.042.883-.248 1.021-.665.061-.185.067-.363.052-1.637-.017-1.388-.02-1.441-.124-1.841-.26-1.011-.725-1.808-1.457-2.495a5.095 5.095 0 0 0-2.808-1.311c-.386-.048-.972-.05-1.121-.005"  fill-rule="evenodd"></path>
</symbol>
<symbol xmlns="http://www.w3.org/2000/svg" viewBox="0 0 24 20" id="log-out">
    <path d="M10.789 2.044a.895.895 0 0 0-.517.308.969.969 0 0 0 .003 1.3c.08.088.226.198.325.244.177.083.237.084 3.6.104l3.42.02.32.113a3.11 3.11 0 0 1 1.966 2.047c.07.228.074.508.074 5.82s-.004 5.592-.074 5.82a3.11 3.11 0 0 1-1.966 2.047l-.32.113-3.42.02c-3.363.02-3.423.021-3.6.104a.983.983 0 0 0-.325 1.548c.08.088.226.198.325.244.177.083.234.084 3.2.096 1.9.008 3.214-.004 3.544-.03 1.27-.104 2.306-.575 3.175-1.443.723-.724 1.131-1.488 1.37-2.567l.091-.412V6.46l-.091-.412c-.239-1.079-.647-1.843-1.37-2.567-.853-.853-1.892-1.332-3.119-1.44-.567-.05-6.399-.047-6.611.003m-4 4.999c-.084.02-.201.062-.26.094-.06.032-1.075 1.026-2.255 2.21C1.977 11.653 2.026 11.595 2.026 12c0 .405-.049.347 2.248 2.654 1.595 1.601 2.191 2.175 2.321 2.234.11.05.26.08.405.08.548 0 .964-.407.969-.948.003-.416-.001-.423-1.342-1.769l-1.244-1.25 5.419-.01c5.4-.011 5.419-.011 5.598-.095a.983.983 0 0 0 .325-1.548 1.232 1.232 0 0 0-.325-.244c-.179-.084-.198-.084-5.598-.095l-5.419-.01 1.244-1.25c1.342-1.348 1.345-1.352 1.342-1.772-.006-.608-.596-1.075-1.18-.934" fill-rule="evenodd"/>
</symbol>
<symbol xmlns="http://www.w3.org/2000/svg" viewBox="0 0 24 20" id="chevron-right">
    <path id="icon" d="M10.5 7L15.5 12L10.5 17" stroke="#A29FB2" stroke-width="2" stroke-linecap="round" stroke-linejoin="round" fill="white"/>
</symbol>
<symbol xmlns="http://www.w3.org/2000/svg" viewBox="0 0 24 24" id="arrow-left">
  <path d="M7.42 8.16 3.58 12l3.85 3.85 3.85 3.85.71-.71.71-.71-2.64-2.64L7.42 13H20v-2H7.42l2.63-2.63c1.447-1.447 2.63-2.648 2.63-2.671 0-.052-1.328-1.379-1.381-1.379-.021 0-1.767 1.728-3.879 3.84" fill-rule="evenodd"></path>
</symbol>
<symbol xmlns="http://www.w3.org/2000/svg" viewBox="0 0 24 24" id="password-eye">
    <path d="M11.378 4.039C8.866 4.259 6.213 5.8 3.729 8.48c-1.187 1.281-1.575 1.993-1.689 3.1-.128 1.236.213 2.228 1.143 3.326 1.342 1.585 3.076 3.057 4.602 3.907a9.72 9.72 0 0 0 3.075 1.092c.552.096 1.728.096 2.28 0 .791-.139 1.66-.408 2.395-.741 1.391-.632 3.234-2.031 4.592-3.487 1.136-1.218 1.525-1.825 1.752-2.734.081-.321.088-.427.07-1.06-.022-.81-.079-1.067-.371-1.671-.214-.443-.559-.909-1.19-1.605-1.829-2.022-3.846-3.462-5.788-4.132-1.042-.36-2.239-.522-3.222-.436m.902 2c.319.021.715.066.88.1 1.24.258 2.694 1.043 4.1 2.214.518.431 1.836 1.768 2.136 2.167.79 1.047.793 1.909.013 2.942-.319.423-1.39 1.527-1.947 2.009-1.545 1.334-3.072 2.162-4.482 2.432-.489.093-1.471.093-1.96 0-1.775-.339-3.678-1.526-5.555-3.466-.96-.993-1.29-1.472-1.411-2.051-.106-.512.008-1.058.323-1.546.31-.479 1.092-1.331 1.903-2.074C7.991 7.2 9.616 6.32 11.277 6.061c.435-.068.332-.065 1.003-.022m-.763 2.004c-1.047.09-2.202.793-2.825 1.717-1.154 1.713-.803 4.058.799 5.339 1.237.99 2.86 1.166 4.288.464 1.068-.525 1.813-1.465 2.102-2.649.492-2.024-.702-4.101-2.721-4.733-.438-.137-1.059-.189-1.643-.138m.848 1.997c.78.145 1.454.838 1.598 1.642.177.989-.493 1.993-1.505 2.257-1.329.346-2.664-.898-2.421-2.257.196-1.097 1.251-1.842 2.328-1.642" fill-rule="evenodd"></path>
</symbol>
<symbol xmlns="http://www.w3.org/2000/svg" viewBox="0 0 24 24" id="password-eye-off">
    <path d="M2.71 2.055a1.167 1.167 0 0 0-.542.435c-.097.147-.108.201-.108.51 0 .32.009.36.12.522.066.096.808.87 1.648 1.719l1.529 1.545-.269.224c-.437.365-2.132 2.103-2.398 2.459-.338.454-.525.802-.681 1.266-.419 1.252-.157 2.747.662 3.777.609.766 1.743 1.908 2.614 2.635 2.8 2.335 5.597 3.241 8.292 2.687 1.049-.216 1.897-.561 3.394-1.383.017-.01.785.729 1.705 1.642.921.912 1.75 1.71 1.843 1.771.145.096.209.112.435.11.435-.005.767-.203.93-.554.09-.194.1-.604.02-.796-.078-.188-4.099-4.254-11.821-11.954-3.77-3.761-6.55-6.503-6.636-6.546-.206-.106-.55-.137-.737-.069m7.865 2.061c-.77.139-1.35.368-1.556.613-.109.129-.219.459-.219.657 0 .241.151.561.336.713.35.287.619.315 1.219.125.487-.154.92-.195 1.821-.174.73.017.846.03 1.264.139 1.399.366 2.893 1.22 4.26 2.435.583.518 1.729 1.676 1.956 1.977.397.526.579 1.076.522 1.579-.061.533-.272.948-.765 1.501-.571.639-.691.845-.691 1.179 0 .485.467.976.93.979.38.002.501-.064.949-.515.801-.806 1.257-1.523 1.454-2.284a4.114 4.114 0 0 0-.694-3.498c-.551-.735-1.816-2.01-2.781-2.802-1.603-1.316-3.263-2.174-4.96-2.563-.449-.103-.549-.111-1.56-.122-.913-.011-1.143-.002-1.485.061m-2.14 6.094c-.774 1.533-.463 3.398.772 4.633a3.992 3.992 0 0 0 3.338 1.114 4.293 4.293 0 0 0 1.218-.379l.264-.132.751.752.752.753-.175.103c-.512.299-1.573.691-2.252.83-.581.119-1.635.119-2.223-.002-1.288-.263-2.668-.953-3.927-1.962-1.001-.803-2.317-2.107-2.755-2.73-.581-.827-.509-1.752.204-2.65.306-.385 1.47-1.558 1.997-2.014l.379-.327.888.887.888.888-.119.236m2.858 2.507c.631.636 1.147 1.173 1.147 1.195 0 .047-.194.088-.42.088-.964 0-1.831-.744-1.985-1.706-.051-.324-.018-.734.061-.734.028 0 .566.52 1.197 1.157" fill-rule="evenodd"></path>
</symbol>
<symbol xmlns="http://www.w3.org/2000/svg" viewBox="0 0 18 18" id="flag">
    <path d="M2.748.797a.76.76 0 0 0-.4.337l-.083.141-.008 7.661c-.005 5.209.002 7.698.024 7.776a.785.785 0 0 0 .368.443c.3.155.643.104.876-.129.235-.234.225-.111.225-2.823v-2.407l.202-.062A13.673 13.673 0 0 1 6 11.294c.906-.106 1.421-.012 2.242.411 1.073.554 1.336.679 1.643.783.516.176.814.232 1.335.252.912.034 2.026-.162 3.54-.624.541-.165.709-.246.823-.396.176-.231.167.023.167-4.593 0-4.759.017-4.412-.224-4.653A.793.793 0 0 0 15 2.25a1.9 1.9 0 0 0-.392.091c-1.234.399-2.265.619-3.043.65-.689.027-1.128-.087-1.905-.494-1.216-.637-1.62-.805-2.235-.927-.368-.073-1.268-.073-1.769.001-.546.08-1.646.316-1.86.398-.039.015-.046-.026-.046-.28 0-.373-.054-.545-.224-.715a.749.749 0 0 0-.778-.177" fill-rule="evenodd"></path>
</symbol>
<symbol xmlns="http://www.w3.org/2000/svg" viewBox="0 0 24 24" id="check">
    <path
      d="M19.642 6.269c-.194.069-.063-.057-6.58 6.342l-3.239 3.18-.747-.726a808.896 808.896 0 0 1-2.603-2.55c-1.206-1.185-1.919-1.857-2.035-1.917-.241-.125-.629-.128-.863-.007-.381.197-.556.487-.553.912.002.233.022.317.109.466.059.1.465.53.903.956.437.426 1.65 1.614 2.694 2.639 1.771 1.74 1.918 1.874 2.201 2.014a1.946 1.946 0 0 0 1.788-.002c.274-.135.405-.25 1.363-1.195.583-.575 2.617-2.572 4.52-4.437 4.456-4.368 4.26-4.168 4.338-4.429.12-.405.042-.728-.244-1.015a.988.988 0 0 0-1.052-.231"
      fill-rule="evenodd" />
</symbol>
<symbol xmlns="http://www.w3.org/2000/svg" viewBox="0 0 24 24" id="three-dots">
    <path
      d="M7 12C7 13.1046 6.10457 14 5 14C3.89543 14 3 13.1046 3 12C3 10.8954 3.89543 10 5 10C6.10457 10 7 10.8954 7 12Z" />
    <path
      d="M14 12C14 13.1046 13.1046 14 12 14C10.8954 14 10 13.1046 10 12C10 10.8954 10.8954 10 12 10C13.1046 10 14 10.8954 14 12Z" />
    <path
      d="M21 12C21 13.1046 20.1046 14 19 14C17.8954 14 17 13.1046 17 12C17 10.8954 17.8954 10 19 10C20.1046 10 21 10.8954 21 12Z" />
</symbol>
<symbol xmlns="http://www.w3.org/2000/svg" viewBox="0 0 24 24" id="edit">
    <path fill-rule="evenodd" clip-rule="evenodd"
      d="M17.5633 2.43662C16.9812 1.85446 16.0373 1.85446 15.4552 2.43662L2.5128 15.379C2.47855 15.4132 2.4552 15.4568 2.4457 15.5043L2.0054 17.7058C1.97107 17.8775 2.12243 18.0289 2.29411 17.9945L4.49561 17.5542C4.5431 17.5447 4.58673 17.5214 4.62098 17.4871L17.5633 4.5448C18.1455 3.96264 18.1455 3.01878 17.5633 2.43662ZM14.0409 1.0224C15.4041 -0.340801 17.6143 -0.340802 18.9775 1.0224C20.3407 2.38561 20.3407 4.5958 18.9775 5.95901L6.03519 18.9014C5.72174 19.2148 5.32252 19.4285 4.88784 19.5154L2.68634 19.9557C1.11522 20.2699 -0.269983 18.8847 0.0442412 17.3136L0.484542 15.1121C0.571478 14.6774 0.785136 14.2782 1.09859 13.9648L14.0409 1.0224Z" />
</symbol>
<symbol xmlns="http://www.w3.org/2000/svg" viewBox="0 0 24 24" id="delete">
    <path fill-rule="evenodd" clip-rule="evenodd"
      d="M6 2C6 0.895431 6.89543 0 8 0H10C11.1046 0 12 0.895431 12 2H16.5C17.3284 2 18 2.67157 18 3.5C18 4.32843 17.3284 5 16.5 5H16V15C16 17.7614 13.7614 20 11 20H7C4.23858 20 2 17.7614 2 15V5H1.5C0.671573 5 0 4.32843 0 3.5C0 2.67157 0.671573 2 1.5 2H6ZM4 5V15C4 16.6569 5.34315 18 7 18H11C12.6569 18 14 16.6569 14 15V5H4ZM7 7C7.55228 7 8 7.44772 8 8V15C8 15.5523 7.55228 16 7 16C6.44772 16 6 15.5523 6 15V8C6 7.44772 6.44772 7 7 7ZM11 7C11.5523 7 12 7.44772 12 8V15C12 15.5523 11.5523 16 11 16C10.4477 16 10 15.5523 10 15V8C10 7.44772 10.4477 7 11 7Z" />
  </symbol>
<symbol xmlns="http://www.w3.org/2000/svg" viewBox="0 0 24 24" id="chevron-down">
    <path
      d="m7 9.5-.7.7 2.85 2.85L12 15.9l2.85-2.85 2.85-2.85-.7-.7-.699-.7-2.151 2.15L12 13.1l-2.15-2.15L7.699 8.8 7 9.5"
      fill-rule="evenodd" />

</symbol>
<symbol xmlns="http://www.w3.org/2000/svg" viewBox="0 0 24 24" id="calendar">
    <path
      d="M7 1C7 0.447715 6.55228 0 6 0C5.44772 0 5 0.447715 5 1H7ZM5 4C5 4.55228 5.44772 5 6 5C6.55228 5 7 4.55228 7 4H5ZM17 1C17 0.447715 16.5523 0 16 0C15.4477 0 15 0.447715 15 1H17ZM15 4C15 4.55228 15.4477 5 16 5C16.5523 5 17 4.55228 17 4H15ZM3.18404 20.564L3.63803 19.673L3.18404 20.564ZM1.43597 18.816L2.32698 18.362L1.43597 18.816ZM20.564 18.816L19.673 18.362L20.564 18.816ZM18.816 20.564L18.362 19.673L18.816 20.564ZM18.816 3.43597L18.362 4.32698L18.816 3.43597ZM20.564 5.18404L19.673 5.63803L20.564 5.18404ZM3.18404 3.43597L3.63803 4.32698L3.18404 3.43597ZM1.43597 5.18404L2.32698 5.63803L1.43597 5.18404ZM5 1V4H7V1H5ZM15 1V4H17V1H15ZM7.4 4H14.6V2H7.4V4ZM20 9.4V14.6H22V9.4H20ZM14.6 20H7.4V22H14.6V20ZM2 14.6V9.4H0V14.6H2ZM7.4 20C6.26339 20 5.47108 19.9992 4.85424 19.9488C4.24907 19.8994 3.90138 19.8072 3.63803 19.673L2.73005 21.455C3.32234 21.7568 3.96253 21.8826 4.69138 21.9422C5.40855 22.0008 6.2964 22 7.4 22V20ZM0 14.6C0 15.7036 -0.000777721 16.5914 0.0578178 17.3086C0.117367 18.0375 0.24318 18.6777 0.544967 19.27L2.32698 18.362C2.19279 18.0986 2.10062 17.7509 2.05118 17.1458C2.00078 16.5289 2 15.7366 2 14.6H0ZM3.63803 19.673C3.07354 19.3854 2.6146 18.9265 2.32698 18.362L0.544967 19.27C1.02433 20.2108 1.78924 20.9757 2.73005 21.455L3.63803 19.673ZM20 14.6C20 15.7366 19.9992 16.5289 19.9488 17.1458C19.8994 17.7509 19.8072 18.0986 19.673 18.362L21.455 19.27C21.7568 18.6777 21.8826 18.0375 21.9422 17.3086C22.0008 16.5914 22 15.7036 22 14.6H20ZM14.6 22C15.7036 22 16.5914 22.0008 17.3086 21.9422C18.0375 21.8826 18.6777 21.7568 19.27 21.455L18.362 19.673C18.0986 19.8072 17.7509 19.8994 17.1458 19.9488C16.5289 19.9992 15.7366 20 14.6 20V22ZM19.673 18.362C19.3854 18.9265 18.9265 19.3854 18.362 19.673L19.27 21.455C20.2108 20.9757 20.9757 20.2108 21.455 19.27L19.673 18.362ZM14.6 4C15.7366 4 16.5289 4.00078 17.1458 4.05118C17.7509 4.10062 18.0986 4.19279 18.362 4.32698L19.27 2.54497C18.6777 2.24318 18.0375 2.11737 17.3086 2.05782C16.5914 1.99922 15.7036 2 14.6 2V4ZM22 9.4C22 8.2964 22.0008 7.40855 21.9422 6.69138C21.8826 5.96253 21.7568 5.32234 21.455 4.73005L19.673 5.63803C19.8072 5.90138 19.8994 6.24907 19.9488 6.85424C19.9992 7.47108 20 8.26339 20 9.4H22ZM18.362 4.32698C18.9265 4.6146 19.3854 5.07354 19.673 5.63803L21.455 4.73005C20.9757 3.78924 20.2108 3.02433 19.27 2.54497L18.362 4.32698ZM7.4 2C6.2964 2 5.40855 1.99922 4.69138 2.05782C3.96253 2.11737 3.32234 2.24318 2.73005 2.54497L3.63803 4.32698C3.90138 4.19279 4.24907 4.10062 4.85424 4.05118C5.47108 4.00078 6.26339 4 7.4 4V2ZM2 9.4C2 8.26339 2.00078 7.47108 2.05118 6.85424C2.10062 6.24907 2.19279 5.90138 2.32698 5.63803L0.544967 4.73005C0.24318 5.32234 0.117367 5.96253 0.0578178 6.69138C-0.000777721 7.40855 0 8.2964 0 9.4H2ZM2.73005 2.54497C1.78924 3.02433 1.02433 3.78924 0.544967 4.73005L2.32698 5.63803C2.6146 5.07354 3.07354 4.6146 3.63803 4.32698L2.73005 2.54497ZM1 8H21V6H1V8ZM14 14H16V12H14V14ZM16 14V16H18V14H16ZM16 16H14V18H16V16ZM14 16V14H12V16H14ZM14 16H12C12 17.1046 12.8954 18 14 18V16ZM16 16V18C17.1046 18 18 17.1046 18 16H16ZM16 14H18C18 12.8954 17.1046 12 16 12V14ZM14 12C12.8954 12 12 12.8954 12 14H14V12Z" />

</symbol>
<symbol xmlns="http://www.w3.org/2000/svg" viewBox="0 0 24 24" id="check-sharp">
    <path
      d="M14.560 10.937 L 9.820 15.595 9.240 15.027 C 8.921 14.715,7.781 13.595,6.706 12.540 C 5.632 11.484,4.729 10.620,4.700 10.620 C 4.672 10.620,4.346 10.932,3.978 11.313 L 3.307 12.006 3.623 12.320 C 3.797 12.493,5.263 13.932,6.879 15.517 L 9.819 18.400 10.239 17.984 C 10.471 17.755,12.910 15.360,15.660 12.662 C 18.410 9.963,20.664 7.742,20.668 7.727 C 20.673 7.712,20.367 7.380,19.988 6.990 L 19.300 6.280 14.560 10.937 "
      fill-rule="evenodd"></path>
</symbol>
<symbol xmlns="http://www.w3.org/2000/svg" viewBox="0 0 24 24" id="minus-sharp">
    <path
      d="M4.000 12.000 L 4.000 13.000 12.000 13.000 L 20.000 13.000 20.000 12.000 L 20.000 11.000 12.000 11.000 L 4.000 11.000 4.000 12.000 "
      stroke="none" fill-rule="evenodd"></path>
</symbol>
<symbol xmlns="http://www.w3.org/2000/svg" viewBox="0 0 24 24" id="minus">
    <path
      d="M4.673 11.063 C 4.310 11.175,4.000 11.606,4.000 12.000 C 4.000 12.405,4.309 12.826,4.690 12.939 C 4.870 12.993,5.755 13.000,12.000 13.000 C 18.245 13.000,19.130 12.993,19.310 12.939 C 19.688 12.827,20.000 12.402,20.000 12.000 C 20.000 11.598,19.688 11.173,19.310 11.061 C 19.009 10.971,4.964 10.974,4.673 11.063 "
      fill-rule="evenodd"></path>
</symbol>
<symbol xmlns="http://www.w3.org/2000/svg" viewBox="0 0 24 24" id="info-in-circle-filled">
    <path fill-rule="evenodd" clip-rule="evenodd"
      d="M12 2C17.5228 2 22 6.47715 22 12C22 17.5228 17.5228 22 12 22C6.47715 22 2 17.5228 2 12C2 6.47715 6.47715 2 12 2ZM13 17C13 17.5523 12.5523 18 12 18C11.4477 18 11 17.5523 11 17V11C11 10.4477 11.4477 10 12 10C12.5523 10 13 10.4477 13 11V17ZM13 7C13 7.55229 12.5523 8 12 8C11.4477 8 11 7.55229 11 7V6.99C11 6.43771 11.4477 5.99 12 5.99C12.5523 5.99 13 6.43771 13 6.99V7Z" />
</symbol>
<symbol xmlns="http://www.w3.org/2000/svg" viewBox="0 0 24 24" id="check-in-circle-filled">
    <path fill-rule="evenodd" clip-rule="evenodd"
      d="M12 22C17.5228 22 22 17.5228 22 12C22 6.47715 17.5228 2 12 2C6.47715 2 2 6.47715 2 12C2 17.5228 6.47715 22 12 22ZM16.7071 10.107C17.0976 9.71649 17.0976 9.08332 16.7071 8.6928C16.3166 8.30227 15.6834 8.30227 15.2929 8.6928L10.6667 13.319L8.70711 11.3595C8.31658 10.9689 7.68342 10.9689 7.29289 11.3595C6.90237 11.75 6.90237 12.3832 7.29289 12.7737L9.95956 15.4403C10.1471 15.6279 10.4015 15.7332 10.6667 15.7332C10.9319 15.7332 11.1862 15.6279 11.3738 15.4403L16.7071 10.107Z" />
</symbol>
<symbol xmlns="http://www.w3.org/2000/svg" viewBox="0 0 24 24" id="info-in-circle-sharp-filled">
    <path fill-rule="evenodd" clip-rule="evenodd"
      d="M12 2C17.5228 2 22 6.47715 22 12C22 17.5228 17.5228 22 12 22C6.47715 22 2 17.5228 2 12C2 6.47715 6.47715 2 12 2ZM11 17.5V10.5H13V17.5H11ZM11 8.5V6.5H13V8.5H11Z" />
</symbol>
<symbol xmlns="http://www.w3.org/2000/svg" viewBox="0 0 24 24" id="check-in-circle-sharp-filled">
    <path fill-rule="evenodd" clip-rule="evenodd"
      d="M12 22C17.5228 22 22 17.5228 22 12C22 6.47715 17.5228 2 12 2C6.47715 2 2 6.47715 2 12C2 17.5228 6.47715 22 12 22ZM10.9086 15.9017L16.7002 10.2135L15.2988 8.78662L10.9086 13.0984L8.70024 10.9295L7.29883 12.3564L10.9086 15.9017Z" />
</symbol>
<symbol xmlns="http://www.w3.org/2000/svg" viewBox="0 0 24 24" id="check-in-circle">
    <path
      d="m11.28 1.023-.56.06c-1.888.2-3.729.94-5.36 2.152-.606.451-1.674 1.519-2.125 2.125-1.034 1.39-1.698 2.866-2.011 4.47-.166.847-.201 1.227-.201 2.17 0 .943.035 1.323.201 2.17.313 1.604.977 3.08 2.011 4.47.451.606 1.519 1.674 2.125 2.125 1.625 1.209 3.314 1.89 5.36 2.162.491.065 2.069.065 2.56 0 2.046-.272 3.735-.953 5.36-2.162.606-.451 1.674-1.519 2.125-2.125 1.209-1.625 1.89-3.314 2.162-5.36.065-.491.065-2.069 0-2.56-.272-2.046-.953-3.735-2.162-5.36-.451-.606-1.519-1.674-2.125-2.125-1.595-1.186-3.275-1.875-5.217-2.139C13 1.038 11.574.99 11.28 1.023m1.728 2.036a8.827 8.827 0 0 1 3.012.899c.947.479 1.613.959 2.338 1.684.725.725 1.205 1.391 1.684 2.338 1.075 2.123 1.249 4.555.493 6.86-.619 1.887-1.895 3.547-3.608 4.692-.789.528-2.051 1.056-3.019 1.265a9.049 9.049 0 0 1-7.542-1.782 10.477 10.477 0 0 1-1.381-1.381 9.173 9.173 0 0 1-1.943-4.748c-.233-2.309.476-4.687 1.946-6.526 1.449-1.811 3.627-3.017 5.96-3.299a9.918 9.918 0 0 1 2.06-.002m2.632 5.409c-.154.053-.521.402-2.581 2.457l-2.4 2.394-1.02-1.024C8.516 11.167 8.399 11.08 8 11.081a1.003 1.003 0 0 0-.892.539c-.123.23-.119.654.007.9.138.268 2.885 3.008 3.125 3.117.26.117.608.111.862-.016.152-.076.845-.747 2.984-2.89 2.699-2.703 2.789-2.798 2.85-3.008.08-.271.08-.375.003-.633-.155-.524-.753-.809-1.299-.622"
      fill-rule="evenodd" />
</symbol>
<symbol xmlns="http://www.w3.org/2000/svg" viewBox="0 0 24 24" id="x-in-circle">
    <path
      d="M11.052 1.041c-2.115.205-4.007.933-5.689 2.189-.609.454-1.679 1.524-2.133 2.133a11.039 11.039 0 0 0-2.114 5.079c-.133.886-.133 2.23 0 3.116.301 2.006 1.046 3.724 2.317 5.342.284.361 1.306 1.383 1.667 1.667 1.618 1.271 3.336 2.016 5.342 2.317.886.133 2.23.133 3.116 0 1.964-.295 3.654-1.017 5.242-2.238.438-.337 1.509-1.408 1.846-1.846 1.221-1.588 1.943-3.278 2.238-5.242.133-.886.133-2.23 0-3.116-.295-1.964-1.019-3.659-2.239-5.242-.314-.407-1.354-1.46-1.745-1.767-1.615-1.266-3.356-2.023-5.32-2.313-.642-.095-1.946-.136-2.528-.079m1.956 2.018a8.867 8.867 0 0 1 2.972.879 8.405 8.405 0 0 1 2.377 1.705 8.365 8.365 0 0 1 1.704 2.377c1.253 2.549 1.253 5.411 0 7.96a8.365 8.365 0 0 1-1.704 2.377 8.365 8.365 0 0 1-2.377 1.704c-2.547 1.252-5.425 1.252-7.96.001a8.405 8.405 0 0 1-2.377-1.705 8.405 8.405 0 0 1-1.705-2.377 8.917 8.917 0 0 1 0-7.96 8.405 8.405 0 0 1 1.705-2.377A8.405 8.405 0 0 1 8.02 3.938a8.947 8.947 0 0 1 4.988-.879M8.973 8.202a.972.972 0 0 0-.716.578c-.097.233-.088.603.022.822.059.117.469.559 1.194 1.288L10.578 12l-1.105 1.11c-.725.729-1.135 1.171-1.194 1.288-.173.347-.099.83.173 1.117.28.296.788.387 1.15.206.117-.059.559-.469 1.288-1.194L12 13.422l1.11 1.105c.729.725 1.171 1.135 1.288 1.194.362.181.87.09 1.15-.206.272-.287.346-.77.173-1.117-.059-.117-.469-.559-1.194-1.288L13.422 12l1.105-1.11c.725-.729 1.135-1.171 1.194-1.288.173-.347.099-.83-.173-1.117a1.03 1.03 0 0 0-1.15-.206c-.117.059-.559.469-1.288 1.194L12 10.578l-1.11-1.105c-.668-.665-1.174-1.136-1.27-1.183-.2-.098-.431-.13-.647-.088"
      fill-rule="evenodd" />
</symbol>
<symbol xmlns="http://www.w3.org/2000/svg" viewBox="0 0 24 24" id="archive">
    <path
      d="M3.485 2.045c-.303.05-.732.206-.998.362-.292.171-.909.788-1.08 1.08-.527.898-.527 2.143 0 3.021.29.483.883 1.017 1.367 1.231l.223.099.014 4.911c.015 5.423-.003 5.036.271 5.86a4.797 4.797 0 0 0 1.197 1.912c.744.744 1.626 1.202 2.712 1.408.39.074 9.228.074 9.618 0 1.086-.206 1.968-.664 2.712-1.408.732-.732 1.183-1.59 1.406-2.677.032-.159.05-1.639.061-5.115l.015-4.891.223-.099c.484-.214 1.077-.748 1.367-1.231.527-.878.527-2.123 0-3.021-.171-.292-.788-.909-1.08-1.08a3.263 3.263 0 0 0-1.033-.364c-.326-.053-16.677-.051-16.995.002m16.935 2.05a.976.976 0 0 1 .578.905.976.976 0 0 1-.578.905l-.2.094H3.78l-.2-.094A.976.976 0 0 1 3.002 5c0-.399.213-.732.578-.905l.2-.094h16.44l.2.094M19 12.662c0 5.247.013 4.994-.3 5.638a2.93 2.93 0 0 1-1.4 1.4c-.641.312-.43.3-5.3.3s-4.659.012-5.3-.3a2.93 2.93 0 0 1-1.4-1.4c-.313-.644-.3-.391-.3-5.638V8h14v4.662m-9.515-2.617c-.303.05-.732.206-.998.362-.292.171-.909.788-1.08 1.08-.527.899-.527 2.127 0 3.026.171.292.788.909 1.08 1.08.28.164.691.309 1.033.364.35.057 4.61.057 4.96 0 .654-.105 1.108-.346 1.62-.857.397-.398.575-.667.726-1.102.284-.815.194-1.784-.233-2.511-.171-.292-.788-.909-1.08-1.08a3.263 3.263 0 0 0-1.033-.364c-.319-.052-4.683-.05-4.995.002m4.915 2.038c.242.11.391.257.505.497a.996.996 0 0 1-.505 1.337c-.174.079-.253.081-2.4.082H9.78l-.2-.094A.976.976 0 0 1 9.002 13c0-.399.213-.732.578-.905l.2-.094H12c2.147.001 2.226.003 2.4.082"
      fill-rule="evenodd" />
</symbol>
<symbol xmlns="http://www.w3.org/2000/svg" viewBox="0 0 24 24" id="pause-in-circle">
    <path
      d="m11.28 1.023-.56.06c-1.888.2-3.729.94-5.36 2.152-.606.451-1.674 1.519-2.125 2.125-1.034 1.39-1.698 2.866-2.011 4.47-.166.847-.201 1.227-.201 2.17 0 .943.035 1.323.201 2.17.313 1.604.977 3.08 2.011 4.47.451.606 1.519 1.674 2.125 2.125 1.625 1.209 3.314 1.89 5.36 2.162.491.065 2.069.065 2.56 0 2.046-.272 3.735-.953 5.36-2.162.606-.451 1.674-1.519 2.125-2.125 1.209-1.625 1.89-3.314 2.162-5.36.065-.491.065-2.069 0-2.56-.272-2.046-.953-3.735-2.162-5.36-.451-.606-1.519-1.674-2.125-2.125-1.595-1.186-3.275-1.875-5.217-2.139C13 1.038 11.574.99 11.28 1.023m1.728 2.036a8.827 8.827 0 0 1 3.012.899c.947.479 1.613.959 2.338 1.684.725.725 1.205 1.391 1.684 2.338 1.075 2.123 1.249 4.555.493 6.86-.619 1.887-1.895 3.547-3.608 4.692-.789.528-2.051 1.056-3.019 1.265a9.049 9.049 0 0 1-7.542-1.782 10.477 10.477 0 0 1-1.381-1.381 9.173 9.173 0 0 1-1.943-4.748c-.233-2.309.476-4.687 1.946-6.526 1.449-1.811 3.627-3.017 5.96-3.299a9.918 9.918 0 0 1 2.06-.002M9.046 7.623a.975.975 0 0 0-.488.573c-.028.097-.038 1.38-.03 3.887l.012 3.743.121.196c.075.121.196.242.317.317.176.109.229.121.522.121.293 0 .346-.012.522-.121.121-.075.242-.196.317-.317l.121-.196V8.174l-.121-.196c-.179-.289-.434-.433-.795-.45-.245-.011-.314.002-.498.095m5 0a.975.975 0 0 0-.488.573c-.028.097-.038 1.38-.03 3.887l.012 3.743.121.196c.075.121.196.242.317.317.176.109.229.121.522.121.293 0 .346-.012.522-.121.121-.075.242-.196.317-.317l.121-.196V8.174l-.121-.196c-.179-.289-.434-.433-.795-.45-.245-.011-.314.002-.498.095"
      fill-rule="evenodd" />
</symbol>
<symbol xmlns="http://www.w3.org/2000/svg" viewBox="0 0 24 24" id="play-in-circle">
    <path
      d="M11.096 1.038c-2.194.199-4.134.961-5.896 2.317-.438.337-1.506 1.405-1.849 1.849C2.279 6.59 1.545 8.188 1.224 9.83c-.166.847-.201 1.227-.201 2.17 0 .943.035 1.323.201 2.17.311 1.595.99 3.107 2.006 4.467.454.609 1.524 1.679 2.133 2.133a11.1 11.1 0 0 0 5.177 2.136c.592.085 2.213.098 2.76.021 2.066-.289 3.743-.967 5.337-2.157.609-.454 1.679-1.524 2.133-2.133 1.016-1.36 1.695-2.872 2.006-4.467.168-.857.202-1.226.201-2.19 0-.754-.017-1.031-.093-1.538-.294-1.959-1.017-3.654-2.239-5.242-.337-.438-1.407-1.508-1.845-1.845-1.591-1.224-3.275-1.944-5.223-2.234-.629-.093-1.897-.136-2.481-.083m1.767 2.004a9.025 9.025 0 0 1 7.22 5.018c1.039 2.119 1.198 4.505.452 6.78-.615 1.877-1.876 3.528-3.555 4.657-.767.516-1.88 1.006-2.817 1.241-.766.192-1.202.241-2.163.241-.961 0-1.397-.049-2.163-.241a9.428 9.428 0 0 1-3.509-1.746A9.085 9.085 0 0 1 3 11.986c0-3.413 1.976-6.563 5.06-8.068a8.998 8.998 0 0 1 4.803-.876m-2.612 4.016c-.706.161-1.32.724-1.558 1.431-.066.194-.073.467-.084 3.377-.013 3.406-.008 3.503.195 3.921.32.663.989 1.131 1.709 1.198.365.034.781-.042 1.092-.199.336-.17 4.268-3.012 4.567-3.302.266-.256.524-.73.588-1.079a2.087 2.087 0 0 0-.55-1.843c-.142-.147-.93-.744-2.05-1.553-2.423-1.749-2.431-1.754-2.736-1.869a2.274 2.274 0 0 0-1.173-.082m2.509 3.407c1.42 1.028 2.02 1.485 2.02 1.537 0 .089-3.952 2.97-4.08 2.975-.079.003-.08-.026-.09-2.937-.006-1.617-.002-2.962.008-2.99.011-.027.043-.05.071-.049.028 0 .96.659 2.071 1.464"
      fill-rule="evenodd" />
</symbol>
<symbol xmlns="http://www.w3.org/2000/svg" viewBox="0 0 24 24" id="x">
    <path
      d="M5.65 5.067c-.229.081-.506.364-.586.599a.968.968 0 0 0 .001.677c.06.179.315.447 2.789 2.927L10.578 12l-2.725 2.73c-2.638 2.642-2.728 2.737-2.789 2.947-.08.271-.08.375-.003.633.083.279.35.546.629.629.258.077.362.077.633-.003.21-.061.305-.151 2.947-2.789L12 13.422l2.73 2.725c2.642 2.638 2.737 2.728 2.947 2.789.271.08.375.08.633.003.279-.083.546-.35.629-.629.077-.258.077-.362-.003-.633-.061-.21-.151-.305-2.789-2.947L13.422 12l2.725-2.73c2.638-2.642 2.728-2.737 2.789-2.947.08-.271.08-.375.003-.633a1.004 1.004 0 0 0-.629-.629c-.258-.077-.362-.077-.633.003-.21.061-.305.151-2.947 2.789L12 10.578 9.27 7.854C6.79 5.38 6.522 5.125 6.343 5.065a1.03 1.03 0 0 0-.693.002"
      fill-rule="evenodd" />
</symbol>
<symbol xmlns="http://www.w3.org/2000/svg" viewBox="0 0 24 24" id="arrow-left">
    <path
      d="M11.64 4.068c-.156.053-.66.541-3.845 3.727-3.356 3.356-3.671 3.682-3.73 3.862a.987.987 0 0 0 0 .686c.059.18.374.507 3.73 3.864 3.57 3.572 3.671 3.668 3.882 3.73.271.079.375.079.633.002.279-.083.546-.35.629-.629.077-.258.077-.362-.003-.633-.061-.21-.151-.305-2.789-2.947L7.422 13h5.843c6.341 0 6.057.01 6.356-.218a1.24 1.24 0 0 0 .248-.293c.095-.161.111-.233.111-.489s-.016-.328-.111-.489a1.19 1.19 0 0 0-.243-.289c-.307-.235.051-.222-6.34-.222H7.422l2.725-2.73c2.638-2.642 2.728-2.737 2.789-2.947.08-.271.08-.375.003-.633-.155-.523-.752-.809-1.299-.622"
      fill-rule="evenodd" />
</symbol>
<symbol fill="none" xmlns="http://www.w3.org/2000/svg" viewBox="0 0 109 36" id="google">
    <path fill-rule="evenodd" clip-rule="evenodd" d="M14.0572 12.6859H26.8107C26.8107 12.6859 27.0374 13.6002 27.0374 15.2002C27.0374 22.8001 21.5959 27.8858 14.1706 27.8858C5.72491 27.8858 0 20.9716 0 13.8859C0 6.62887 6.065 -0.0567786 13.9438 0.000363663C20.1222 0.000363663 23.5231 3.77175 23.5231 3.77175L20.9158 6.51458C20.9158 6.51458 18.4217 3.77175 14.1139 3.77175C8.55902 3.77175 4.13781 8.22885 4.13781 14.0002C4.13781 19.8859 8.78575 24.1144 14.1139 24.1144C18.2517 24.1144 22.6729 21.7716 23.1264 16.4573H14.0572V12.6859ZM37.1836 9.88598C31.9688 9.88598 28.2278 14.0002 28.2278 18.8002C28.2278 23.7144 31.8554 27.8858 37.2969 27.8858C42.2283 27.8858 46.196 24.1715 46.196 18.9145C46.1394 12.9717 41.4914 9.88598 37.1836 9.88598ZM37.2402 13.4859C39.791 13.4859 42.2283 15.6002 42.2283 18.9145C42.2283 22.2287 39.8476 24.343 37.2402 24.343C34.4061 24.343 32.1955 22.0573 32.1955 18.8573C32.1388 15.7716 34.3495 13.4859 37.2402 13.4859ZM47.7265 18.8002C47.7265 14.0002 51.4675 9.88598 56.6823 9.88598C60.9901 9.88598 65.6381 12.9717 65.6947 18.9145C65.6947 24.1715 61.727 27.8858 56.7956 27.8858C51.3541 27.8858 47.7265 23.7144 47.7265 18.8002ZM61.727 18.9145C61.727 15.6002 59.2897 13.4859 56.739 13.4859C53.8482 13.4859 51.6375 15.7716 51.6942 18.8573C51.6942 22.0573 53.9048 24.343 56.739 24.343C59.3463 24.343 61.727 22.2287 61.727 18.9145ZM75.7842 9.94312C70.9662 9.94312 67.2252 14.1716 67.2252 18.9145C67.2252 24.2858 71.5897 27.9429 75.6708 27.9429C78.2215 27.9429 79.5252 26.9715 80.6022 25.7715V27.5429C80.6022 30.6286 78.7317 32.5143 75.8976 32.5143C73.1768 32.5143 71.8164 30.4572 71.3063 29.3144L67.8487 30.7429C69.039 33.3143 71.4763 36 75.8409 36C80.6022 36 84.2298 32.9715 84.2298 26.6287V10.4574H80.4888V12.0002C79.4685 10.7431 77.8814 9.94312 75.7842 9.94312ZM76.1243 13.4859C78.4483 13.4859 80.8856 15.5431 80.8856 18.9716C80.8856 22.5144 78.5049 24.4001 76.0676 24.4001C73.5169 24.4001 71.1362 22.2859 71.1362 19.0287C71.1929 15.4859 73.6303 13.4859 76.1243 13.4859ZM92.6755 18.8573C92.6755 13.4859 96.4732 9.88598 101.008 9.88598C104.522 9.88598 107.186 12.286 108.376 15.0288L109 16.5145L97.04 21.543C97.7769 22.9144 98.9106 24.2858 101.405 24.2858C103.615 24.2858 104.976 23.0858 105.769 21.8287L108.887 23.943C107.526 25.7715 105.146 27.8858 101.405 27.8858C96.9267 27.8858 92.6755 24.5144 92.6755 18.8573ZM104.465 15.3145C103.899 14.2288 102.765 13.3717 101.121 13.3717C98.5705 13.3717 96.0764 16.0573 96.5299 18.6859L104.465 15.3145ZM90.9184 27.3715H87.0073V0.857498H90.9184V27.3715Z" fill="#A29FB2"></path>
  </symbol>
  <symbol fill="none" xmlns="http://www.w3.org/2000/svg" viewBox="0 0 111 42" id="creative">
    <path fill-rule="evenodd" clip-rule="evenodd" d="M108.805 20.3475L108.805 20.3476C108.502 21.485 107.36 25.7716 103.826 25.7716C102.249 25.7716 101.149 24.6105 100.489 23.1954C105.403 22.1069 107.054 18.2608 107.054 15.6484C107.054 12.6005 104.853 11.4757 102.983 11.4757C99.9389 11.4757 95.9413 14.3059 95.9413 19.7847C95.9413 20.2927 95.978 20.7644 96.0146 21.1998C94.9511 20.8733 94.0342 20.329 93.4107 19.3856C94.3276 15.3218 94.1809 11.4394 92.2738 11.4394C91.2102 11.4394 90.2933 12.8182 90.2933 15.8661C90.2933 17.0634 90.6234 18.406 91.2469 19.6033C90.8434 21.4538 89.5231 25.953 87.7994 25.953C85.7641 25.953 86.0451 17.6325 86.1558 14.3564C86.1727 13.8543 86.1857 13.4706 86.1857 13.2536C86.1857 11.9111 82.9216 10.5323 82.2248 11.2217C81.9314 11.512 81.858 13.3262 81.858 15.6484C81.858 17.5714 82.0047 19.821 82.4448 21.9255C82.2248 23.0503 81.2345 25.9893 79.4375 25.9893C77.1406 25.9893 77.6828 18.8688 77.9447 15.4291C78.0007 14.6945 78.0438 14.1279 78.0438 13.8342C78.0438 12.6368 74.9264 11.512 74.1562 12.2377C73.8628 12.528 73.6428 14.6687 73.6428 17.9705C73.6428 19.3493 73.7161 20.8007 73.9362 22.1795C73.6428 23.6308 72.4692 25.9893 70.5987 25.9893C67.604 25.9893 68.9007 14.6198 69.7083 7.53769L69.7185 7.4482C70.1952 7.37564 70.7086 7.30309 71.2219 7.23054L71.2222 7.23049C71.3276 7.21891 71.4349 7.20662 71.5431 7.19424C72.7899 7.05151 74.1562 6.89509 74.1562 7.62962C74.1562 9.4801 75.4032 10.0606 76.3201 10.0606C77.347 10.0606 78.2272 9.26239 78.2272 7.73847C78.2272 6.25082 76.9069 4.83575 74.5963 4.83575C73.056 4.83575 71.479 5.01717 69.9386 5.27116C69.9681 4.95032 69.9976 4.65033 70.0249 4.37187C70.0997 3.61112 70.1586 3.01113 70.1586 2.58614C70.1586 1.02593 66.8946 -0.497994 66.2344 0.155117C66.1244 0.263969 65.6843 2.73128 65.2808 6.17826C63.007 6.61366 60.7698 7.01279 58.5326 7.01279C57.7624 7.01279 57.8725 9.33496 60.4764 9.33496C61.9801 9.33496 63.4838 9.00841 65.0241 8.60928C64.8041 11.004 64.6574 13.6528 64.6574 16.1926C64.6574 18.4785 64.8041 20.4741 65.0975 22.1795C64.8041 23.4494 63.8872 26.0256 62.1635 26.0256C59.4173 26.0256 60.0475 18.215 60.3368 14.6289C60.3952 13.9046 60.4397 13.3527 60.4397 13.0722C60.4397 12.274 57.4324 10.5323 56.8089 11.1492C56.7355 11.2217 56.6622 11.7297 56.6622 11.7297C56.6622 11.7297 56.2588 11.4394 55.1585 11.4394C50.9409 11.4394 47.5667 16.5918 47.5667 21.2724C47.5667 21.4901 47.5667 21.7078 47.6034 21.9255C46.9433 23.4494 45.2929 26.0619 42.3222 26.0619C40.8185 26.0619 39.7549 25.0822 39.0214 23.8123C43.6425 22.506 45.4396 18.5148 45.4396 15.9386C45.4396 12.9271 42.8723 11.4394 41.0019 11.4394C37.7378 11.4394 34.1803 14.6687 34.1803 20.1113C34.1803 21.7078 34.4737 23.0503 34.9872 24.2114C34.4004 25.1185 33.5202 26.0256 32.3099 26.0256C29.5445 26.0256 30.573 18.4946 31.0341 15.1179L31.0341 15.1178C31.1356 14.3745 31.2096 13.8325 31.2096 13.6165C31.2096 13.3262 31.2096 12.7457 30.6595 12.3828C30.1661 12.0232 27.9814 11.6635 26.266 11.3811C25.5586 11.2647 24.931 11.1613 24.5347 11.0766V10.2783C24.5347 8.10131 23.1778 7.62962 22.2609 7.62962C20.7572 7.62962 20.4638 9.29868 20.4638 9.6978C20.4638 10.0969 20.5738 11.512 22.0775 12.3465C22.0775 16.3741 19.4736 25.9167 12.5053 25.9167C7.22406 25.9167 5.31695 20.5467 5.31695 16.5555C5.31695 9.80665 9.31454 4.61805 11.8818 4.61805C13.491 4.61805 13.5867 6.16044 13.6827 7.70718C13.7792 9.26269 13.876 10.8226 15.5126 10.8226C17.7865 10.8226 18.1166 8.64557 18.1166 7.62962C18.1166 5.74285 16.1361 2.2233 11.8818 2.2233C5.13357 2.2233 0.145752 10.3509 0.145752 17.3174C0.145752 24.03 4.8035 29.4 11.3317 29.4C21.4174 29.4 23.9113 18.8051 24.4247 12.8908C24.659 12.9552 25.0089 13.0333 25.3692 13.1138C26.0242 13.26 26.714 13.414 26.8086 13.5076C26.9255 13.6233 26.8294 14.4316 26.6901 15.6034L26.69 15.6034V15.6034V15.6034C26.5235 17.004 26.2951 18.9239 26.2951 20.8007C26.2951 25.1185 27.7255 28.6018 31.1729 28.6018C33.3368 28.6018 35.0605 27.0415 35.9774 25.8442C37.371 27.6221 39.3882 28.5292 41.3686 28.5292C44.7794 28.5292 47.0166 26.4247 48.1169 24.7557C49.0704 27.2955 51.0142 28.5292 52.7746 28.5292C55.2319 28.5292 56.6989 25.2636 56.7722 24.7557C57.5057 27.0415 59.2294 28.6018 61.1732 28.6018C63.6305 28.6018 65.1342 26.3884 65.721 25.0096C66.6012 27.3318 67.9948 28.6018 70.0119 28.6018C72.3225 28.6018 73.8262 26.5336 74.523 25.1548C75.2565 27.1867 76.4668 28.6018 78.3739 28.6018C80.9411 28.6018 82.5549 25.9893 83.0683 24.6831C83.9118 26.9327 85.2321 28.5292 87.2859 28.5292C89.5598 28.5292 91.5403 25.2999 92.7139 21.6715C93.6674 22.5786 94.9144 23.2317 96.4181 23.4131C97.555 26.6787 100.232 28.4929 103.056 28.4929C107.971 28.4929 109.878 23.4857 110.098 22.3246C110.391 21.1273 109.254 19.7122 108.888 20.075C108.874 20.0885 108.848 20.1864 108.805 20.3475ZM40.8552 12.9996C42.909 12.9996 41.6987 20.7644 38.3246 22.0344C38.0679 21.1998 37.9579 20.4016 37.9579 19.7847C37.9212 17.1723 38.9848 12.9996 40.8552 12.9996ZM53.3614 25.3362C49.7673 25.3362 52.2978 13.0359 55.1585 13.0359C57.0656 13.0359 56.7722 25.3362 53.3614 25.3362ZM102.506 13.0722C104.487 13.0722 103.35 21.091 99.9022 21.5989C99.7188 20.9458 99.6455 20.2927 99.6455 19.7847C99.6455 17.1723 100.636 13.0722 102.506 13.0722ZM34.3614 34.3H33.1681C33.0935 34.3 33.019 34.3377 32.9817 34.4132L30.8561 37.999C30.7442 38.1123 30.6697 38.1123 30.5951 37.999L28.5441 34.4132C28.5068 34.3377 28.4322 34.3 28.3577 34.3H27.2017C27.0525 34.3 26.9406 34.4132 26.9406 34.5642V41.7358C26.9406 41.8868 27.0525 42 27.2017 42H28.3577C28.5068 42 28.6187 41.8868 28.6187 41.7358V38.0368C28.6187 37.8103 28.8424 37.6971 28.9916 37.8858L30.5951 40.5279C30.707 40.6789 30.8934 40.6789 30.968 40.5279L32.6088 37.8858C32.7579 37.6971 32.9817 37.8103 32.9817 38.0368V41.7358C32.9817 41.8868 33.0935 42 33.2427 42H34.436C34.5852 42 34.697 41.8868 34.697 41.7358V34.5642C34.6225 34.4132 34.5106 34.3 34.3614 34.3ZM42.7344 34.3C42.843 34.3 42.9154 34.3759 42.9516 34.4517L45.9564 41.6586C46.0288 41.8103 45.9202 42 45.7392 42H44.5445C44.4359 42 44.3635 41.9241 44.3273 41.8483L43.8567 40.6345C43.8205 40.5586 43.7481 40.4828 43.6395 40.4828H40.5623C40.4537 40.4828 40.3813 40.5586 40.3451 40.6345L39.9107 41.8483C39.8745 41.9241 39.802 42 39.6934 42H38.4626C38.2816 42 38.173 41.8103 38.2454 41.6586L41.2863 34.4517C41.3225 34.3759 41.3949 34.3 41.5035 34.3H42.7344ZM41.3587 39.0034H42.9154C43.0602 39.0034 43.205 38.8138 43.1688 38.6621L42.3724 36.5759C42.3 36.3862 42.0104 36.3862 41.938 36.5759L41.1415 38.6621C41.0691 38.8138 41.1777 39.0034 41.3587 39.0034ZM64.5262 37.5083C64.4549 37.5838 64.4549 37.7348 64.5262 37.8103L67.0903 41.6225C67.1971 41.7735 67.0903 42 66.9122 42H65.5589C65.4877 42 65.4165 41.9623 65.3809 41.8868L63.6002 39.1691C63.529 39.0559 63.3509 39.0559 63.2441 39.1691L62.3181 40.3392C62.3181 40.3581 62.3092 40.3864 62.3003 40.4147C62.2914 40.443 62.2825 40.4713 62.2825 40.4902V41.7358C62.2825 41.849 62.2113 41.9623 62.0689 41.9623H61.0005C60.8936 41.9623 60.7868 41.8868 60.7868 41.7358V34.5265C60.7868 34.4132 60.858 34.3 61.0005 34.3H62.0689C62.1757 34.3 62.2825 34.3755 62.2825 34.5265V37.4706C62.2825 37.6971 62.5318 37.8103 62.6743 37.6216L65.1316 34.3755C65.1672 34.3377 65.2384 34.3 65.3096 34.3H66.5205C66.6986 34.3 66.8054 34.5265 66.6986 34.6775L64.5262 37.5083ZM76.7429 40.4448H73.2299C73.0836 40.4448 72.9738 40.331 72.9738 40.1793V39.0414C72.9738 38.8897 73.0836 38.7759 73.2299 38.7759H75.5719C75.7183 38.7759 75.8281 38.6621 75.8281 38.5103V37.6759C75.8281 37.5241 75.7183 37.4103 75.5719 37.4103H73.2299C73.0836 37.4103 72.9738 37.2966 72.9738 37.1448V36.0448C72.9738 35.8931 73.0836 35.7793 73.2299 35.7793H76.4867C76.6331 35.7793 76.7429 35.6655 76.7429 35.5138V34.5655C76.7429 34.4138 76.6331 34.3 76.4867 34.3H71.6199C71.4735 34.3 71.3637 34.4138 71.3637 34.5655V41.7345C71.3637 41.8862 71.4735 42 71.6199 42H76.7429C76.8893 42 76.999 41.8862 76.999 41.7345V40.7862C77.0356 40.5586 76.8893 40.4448 76.7429 40.4448ZM80.7496 34.3H86.7067C86.8163 34.3 86.9259 34.4045 86.8529 34.509V35.4144C86.8529 35.5189 86.7798 35.6234 86.6336 35.6234H84.6966C84.587 35.6234 84.4773 35.693 84.4773 35.8323V41.091C84.4773 41.1955 84.4043 41.3 84.2581 41.3H83.1251C83.0155 41.3 82.9059 41.2303 82.9059 41.091V35.8323C82.9059 35.7279 82.8328 35.6234 82.6866 35.6234H80.7496C80.64 35.6234 80.5304 35.5537 80.5304 35.4144V34.509C80.5304 34.4045 80.6035 34.3 80.7496 34.3ZM52.6473 34.3C54.667 34.3 55.8509 35.5078 55.8509 37.1686C55.8509 38.1877 55.433 38.8672 54.8759 39.3578C54.8062 39.4333 54.7714 39.5466 54.8062 39.6598L55.7464 41.6603C55.8161 41.8113 55.7116 42 55.5375 42H54.3187C54.2143 42 54.1446 41.9245 54.1098 41.849L53.3089 40.1127C53.2524 39.9901 53.1958 39.992 53.0459 39.997C53.0112 39.9982 52.9716 39.9995 52.9259 39.9995H52.7866H51.9509C51.742 39.9995 51.7072 40.0373 51.7072 40.226V41.7358C51.7072 41.849 51.6375 41.9623 51.4982 41.9623H50.4188C50.3143 41.9623 50.2099 41.8868 50.2099 41.7358V34.5642C50.2099 34.451 50.2795 34.3377 50.4188 34.3377C51.1848 34.3 51.9161 34.3 52.6473 34.3ZM52.4732 38.5358C52.5661 38.5316 52.6589 38.5275 52.7518 38.5275C53.8313 38.452 54.3187 37.8858 54.3187 37.1686C54.3187 36.3005 53.6223 35.8475 52.717 35.8098C52.4036 35.7721 52.1598 35.7721 51.9161 35.7721C51.8116 35.7721 51.7072 35.8475 51.7072 35.9985V38.301C51.7072 38.4142 51.7768 38.5275 51.9161 38.5275C52.1018 38.5526 52.2875 38.5442 52.4732 38.5358Z" fill="#A29FB2"></path>
  </symbol>
  <symbol fill="none" xmlns="http://www.w3.org/2000/svg" viewBox="0 0 117 36" id="airbnb">
    <path fill-rule="evenodd" clip-rule="evenodd" d="M61.7349 9.02894C61.7349 10.3023 60.6882 11.4019 59.3507 11.4019C58.0132 11.4019 56.9664 10.3601 56.9664 9.02894C56.9664 7.69775 57.955 6.65595 59.3507 6.65595C60.7463 6.7717 61.7349 7.81351 61.7349 9.02894ZM52.0235 13.7749C52.0235 14.0064 52.0235 14.3537 52.0235 14.3537C52.0235 14.3537 50.9186 12.9068 48.5344 12.9068C44.5801 12.9068 41.498 15.9164 41.498 20.0257C41.498 24.135 44.5219 27.1447 48.5344 27.1447C50.9768 27.1447 52.0235 25.6399 52.0235 25.6399V26.2765C52.0235 26.5659 52.2561 26.7974 52.5469 26.7974H55.4545V13.254C55.4545 13.254 52.7795 13.254 52.5469 13.254C52.2561 13.254 52.0235 13.5434 52.0235 13.7749ZM52.0235 22.4566C51.5002 23.2669 50.3953 23.9614 49.1159 23.9614C46.7899 23.9614 45.0453 22.5145 45.0453 20.0836C45.0453 17.6527 46.848 16.2058 49.1159 16.2058C50.3953 16.2058 51.5583 16.9003 52.0235 17.7106V22.4566ZM57.6643 13.254H61.1534V26.7974H57.6643V13.254ZM109.594 12.9068C107.21 12.9068 106.105 14.3537 106.105 14.3537V6.7717H102.616V26.8553C102.616 26.8553 105.291 26.8553 105.523 26.8553C105.814 26.8553 106.047 26.6238 106.047 26.3344V25.6977C106.047 25.6977 107.151 27.2026 109.536 27.2026C113.49 27.2026 116.572 24.1929 116.572 20.0836C116.63 15.9164 113.548 12.9068 109.594 12.9068ZM109.012 23.9035C107.675 23.9035 106.628 23.209 106.105 22.3987V17.537C106.628 16.8424 107.791 16.0322 109.012 16.0322C111.338 16.0322 113.083 17.4791 113.083 19.91C113.083 22.3408 111.338 23.9035 109.012 23.9035ZM100.813 18.8103V26.9132H97.3238V19.2154C97.3238 16.9582 96.626 16.09 94.6488 16.09C93.6021 16.09 92.4972 16.6109 91.7994 17.4212V26.8553H88.3103V13.254H91.0434C91.3342 13.254 91.5668 13.4855 91.5668 13.7749V14.3537C92.5554 13.3119 93.951 12.9068 95.2885 12.9068C96.8004 12.9068 98.0798 13.3119 99.0684 14.1801C100.348 15.2219 100.813 16.4952 100.813 18.8103ZM79.8783 12.9068C77.494 12.9068 76.3892 14.3537 76.3892 14.3537V6.7717H72.9V26.8553C72.9 26.8553 75.575 26.8553 75.8076 26.8553C76.0984 26.8553 76.331 26.6238 76.331 26.3344V25.6977C76.331 25.6977 77.4359 27.2026 79.8201 27.2026C83.7744 27.2026 86.8565 24.1929 86.8565 20.0836C86.9146 15.9164 83.8326 12.9068 79.8783 12.9068ZM79.2967 23.9035C77.9592 23.9035 76.9125 23.209 76.3891 22.3987V17.537C76.9125 16.8424 78.0755 16.0322 79.2967 16.0322C81.6228 16.0322 83.3674 17.4791 83.3674 19.91C83.3674 22.3408 81.6228 23.9035 79.2967 23.9035ZM69.8761 12.9068C70.9229 12.9068 71.4462 13.0804 71.4462 13.0804V16.2637C71.4462 16.2637 68.5387 15.2797 66.7359 17.3633V26.8553H63.2468V13.254C63.2468 13.254 65.9218 13.254 66.1544 13.254C66.4452 13.254 66.6778 13.4855 66.6778 13.7749V14.3537C67.3756 13.6013 68.8294 12.9068 69.8761 12.9068ZM33.7639 25.6399C33.5894 25.2347 33.4149 24.7138 33.2405 24.3666C32.9497 23.7299 32.659 23.0932 32.4264 22.5145L32.3682 22.4566C29.8677 17.074 27.1927 11.5756 24.3433 6.13505L24.227 5.90354C23.9362 5.38264 23.6454 4.80386 23.3547 4.22508C23.0058 3.58842 22.6569 2.89389 22.0753 2.25723C20.9123 0.81029 19.2259 0 17.4813 0C15.6786 0 14.0504 0.810289 12.8292 2.14148C12.2477 2.83601 11.8406 3.47267 11.4917 4.1672C11.2009 4.74598 10.9102 5.32476 10.6194 5.84566L10.5031 6.07717C7.71183 11.4598 4.97869 16.9582 2.47817 22.3987L2.42001 22.4566C2.18741 23.0354 1.89665 23.672 1.60589 24.3087C1.43143 24.7138 1.25698 25.119 1.08252 25.582C0.617307 26.9132 0.442851 28.1865 0.675459 29.4598C1.08252 32.1801 2.88523 34.4373 5.38576 35.4212C6.31619 35.8264 7.30477 36 8.29335 36C8.58411 36 8.93302 35.9421 9.22378 35.9421C10.445 35.8264 11.6662 35.4212 12.8292 34.7267C14.3411 33.9164 15.7368 32.701 17.3069 30.9646C18.877 32.701 20.3308 33.8585 21.7846 34.7267C23.0058 35.4212 24.227 35.8264 25.39 35.9421C25.6807 36 26.0297 36 26.3204 36C27.309 36 28.3557 35.8264 29.228 35.4212C31.7867 34.4373 33.5312 32.1222 33.9383 29.4598C34.3454 28.1865 34.2291 26.9711 33.7639 25.6399ZM17.4232 27.492C15.446 25.0611 14.2248 22.746 13.7596 20.7781C13.5852 19.9678 13.527 19.2154 13.6433 18.5788C13.7015 18 13.9341 17.4791 14.2248 17.074C14.9227 16.09 16.0857 15.5113 17.4232 15.5113C18.7607 15.5113 19.9819 16.09 20.6215 17.074C20.9123 17.4791 21.1449 18 21.2031 18.5788C21.3194 19.2154 21.2612 19.9678 21.0868 20.7781C20.6215 22.6881 19.3422 25.0032 17.4232 27.492ZM31.8448 29.1704C31.6122 31.0225 30.3329 32.6431 28.5302 33.3955C27.6579 33.7428 26.7275 33.8585 25.7971 33.7428C24.8666 33.627 23.9943 33.3376 23.0639 32.8167C21.7846 32.1222 20.4471 30.9646 18.9351 29.3441C21.3194 26.4502 22.7732 23.7299 23.2965 21.3569C23.5291 20.2572 23.5873 19.2154 23.471 18.2894C23.3547 17.3633 23.0058 16.5531 22.4824 15.8585C21.3775 14.2379 19.4585 13.3119 17.365 13.3119C15.2716 13.3119 13.3526 14.2958 12.2477 15.8585C11.7243 16.5531 11.4335 17.4212 11.2591 18.2894C11.1428 19.2154 11.1428 20.2572 11.4335 21.3569C11.9569 23.7299 13.4689 26.4502 15.7949 29.3441C14.283 31.0225 12.9455 32.1222 11.6662 32.8167C10.7357 33.3376 9.8053 33.627 8.93302 33.7428C7.94444 33.8585 7.01401 33.6849 6.19988 33.3955C4.39718 32.701 3.17599 31.0225 2.88523 29.1704C2.76892 28.2444 2.82708 27.3762 3.23414 26.3344C3.35044 25.9871 3.5249 25.6399 3.69935 25.1768C3.93196 24.5981 4.22272 23.9614 4.51348 23.3826L4.57163 23.3248C7.07216 17.9421 9.74714 12.4437 12.5384 7.11897L12.6547 6.88746C12.9455 6.36656 13.2363 5.78778 13.527 5.209C13.8178 4.63023 14.1667 4.10932 14.5156 3.6463C15.2716 2.77814 16.3183 2.31511 17.4232 2.31511C18.5281 2.31511 19.5748 2.77814 20.3308 3.6463C20.7378 4.10932 21.0286 4.63023 21.3194 5.209C21.6101 5.7299 21.9009 6.30868 22.1916 6.88746L22.3079 7.11897C25.0411 12.5016 27.7161 18 30.2166 23.3248V23.3826C30.5073 23.9614 30.74 24.5981 31.0307 25.1768C31.2052 25.582 31.3796 25.9871 31.4959 26.3344C31.903 27.3183 32.0193 28.2444 31.8448 29.1704Z" fill="#A29FB2"></path>
  </symbol>
  <symbol fill="none" xmlns="http://www.w3.org/2000/svg" viewBox="0 0 127 36" id="shopify">
    <path fill-rule="evenodd" clip-rule="evenodd" d="M31.5867 32.7798L31.5865 32.7789C31.5225 32.3443 27.7992 7.05967 27.7367 6.87215C27.7367 6.68301 27.5473 6.61997 27.421 6.61997C27.2948 6.61997 24.5804 6.43082 24.5804 6.43082L22.4972 4.35026C22.4846 4.3377 22.4709 4.32624 22.4563 4.31581C22.3884 4.26672 22.287 4.22517 22.1852 4.22419C22.0528 4.20749 21.9154 4.21531 21.8218 4.22064C21.7879 4.22257 21.7598 4.22417 21.7397 4.22417C21.7397 4.22417 21.2978 4.35026 20.6665 4.5394C20.0353 2.71103 18.9621 1.0718 17.0052 1.0718H16.8789C16.3108 0.378284 15.6164 0 15.0483 0C10.5032 0 8.3569 5.67426 7.66252 8.57443C5.89498 9.14186 4.63246 9.52014 4.5062 9.52014L4.4431 9.54113C3.55641 9.83586 3.49332 9.85684 3.36993 10.7811C3.24368 11.4116 0.718628 31.3345 0.718628 31.3345L20.6702 35.0432L20.6665 35.1173L31.5874 32.7846L31.5867 32.7798ZM19.5934 4.91769C19.2718 5.03814 18.9246 5.13302 18.5518 5.23489C18.3392 5.29299 18.1182 5.35337 17.889 5.42207V5.04378C17.889 3.90893 17.6996 3.02627 17.4471 2.33275C18.5202 2.3958 19.2146 3.5937 19.5934 4.91769ZM16.7527 5.61121C16.7527 4.28722 16.5633 3.27846 16.3108 2.58494C15.1745 3.02627 13.912 4.28722 13.2808 6.87215C14.4802 6.49387 15.6796 6.11559 16.7527 5.80035V5.61121ZM14.922 1.32399C15.1114 1.32399 15.3008 1.38704 15.4902 1.51313C14.0383 2.20666 12.4601 3.90893 11.8288 7.37653C11.0898 7.62256 10.3508 7.83019 9.64182 8.02938L9.64135 8.02951L9.64033 8.0298L9.64019 8.02984C9.4413 8.08572 9.24479 8.14093 9.05129 8.19615C9.87193 5.54816 11.7026 1.32399 14.922 1.32399ZM17.0683 12.6095L15.7427 16.5814C15.7427 16.5814 14.5433 15.951 13.1545 15.951C11.0713 15.951 10.9451 17.275 10.9451 17.5902C10.9451 18.3157 11.6906 18.8626 12.59 19.5223C13.9571 20.525 15.6795 21.7884 15.6795 24.3363C15.6795 27.6778 13.5333 29.8214 10.6926 29.8214C7.28376 29.8214 5.51622 27.6778 5.51622 27.6778L6.39999 24.6515C6.39999 24.6515 8.23065 26.2277 9.74568 26.2277C10.7557 26.2277 11.1345 25.4711 11.1345 24.8406C11.1345 23.7886 10.3798 23.1864 9.53325 22.5108C8.45191 21.6479 7.22063 20.6653 7.22063 18.4729C7.22063 15.1944 9.5563 12.042 14.3539 12.042C16.1846 12.042 17.0683 12.6095 17.0683 12.6095ZM108.98 14.0595H111.947L111.379 17.1489H108.412L106.139 29.0648H101.847L104.119 17.2119H102.099L102.731 13.9965H104.751L104.877 13.303C105.193 11.5377 105.887 9.77233 107.339 8.51138C108.475 7.50263 109.99 7.0613 111.505 7.0613C113.083 7.0613 113.841 7.43958 113.841 7.43958L113.02 10.7811C113.02 10.7811 112.389 10.5919 111.631 10.5919C110.243 10.5919 109.359 11.9159 109.106 13.366L108.98 14.0595ZM59.5523 13.7443C57.6585 13.7443 56.2066 14.627 55.0072 16.014H54.9441L56.5854 7.37653H52.2928L48.1264 29.1909H52.419L53.8709 21.7513C54.4391 18.9142 55.891 17.2119 57.2166 17.2119C58.1635 17.2119 58.5423 17.8424 58.5423 18.7881C58.5423 19.3555 58.4791 20.1121 58.3529 20.6795L56.7116 29.1909H61.0673L62.7717 20.3643C62.9611 19.4186 63.0874 18.3468 63.0874 17.5902C63.0242 15.1944 61.7617 13.7443 59.5523 13.7443ZM44.2757 20.049C43.2026 19.4816 42.6345 18.9772 42.6345 18.2837C42.6345 17.4011 43.392 16.8336 44.6545 16.8336C46.0433 16.8336 47.3058 17.4011 47.3058 17.4011L48.3158 14.3748C48.3158 14.3748 47.4321 13.6813 44.7176 13.6813C40.9932 13.6813 38.405 15.8249 38.405 18.7881C38.405 20.4904 39.6044 21.8144 41.2457 22.697C42.5713 23.4536 43.0132 23.958 43.0132 24.7145C43.0132 25.5342 42.382 26.1646 41.1194 26.1646C39.2888 26.1646 37.6475 25.2189 37.6475 25.2189L36.5743 28.2452C36.5743 28.2452 38.1525 29.317 40.8038 29.317C44.6545 29.317 47.3689 27.4256 47.3689 24.021C47.3058 22.3187 45.917 21.0578 44.2757 20.049ZM64.1605 23.5166C64.1605 18.4098 67.5693 13.7443 72.6826 13.7443C76.6595 13.7443 78.4902 16.5814 78.4902 19.7338C78.4902 24.9667 75.0814 29.5061 70.0312 29.5061C66.1806 29.5061 64.1605 26.8581 64.1605 23.5166ZM70.5994 26.1646C69.1475 26.1646 68.5162 24.9037 68.5162 23.3905C68.5162 20.9317 69.7787 16.9597 72.1144 16.9597C73.6295 16.9597 74.1345 18.2837 74.1345 19.5447C74.0713 22.1296 72.8088 26.1646 70.5994 26.1646ZM84.8659 16.2662C84.8659 16.2662 86.5072 13.7443 89.411 13.7443C92.5042 13.7443 93.7667 16.2662 93.7667 19.1664C93.7667 24.3993 90.4842 29.5061 85.4972 29.5061C83.8559 29.5061 82.9721 28.9387 82.9721 28.9387H82.909L81.7096 35.2434H77.4801L80.384 19.6708C80.7627 17.9054 81.0784 15.5727 81.2677 13.9965H85.0553L84.8028 16.2662H84.8659ZM85.3078 26.1646C84.1715 26.1646 83.5403 25.5342 83.5403 25.5342L84.2347 21.5622C84.7397 18.9142 86.1284 17.1489 87.5804 17.1489C88.906 17.1489 89.2848 18.3468 89.2848 19.4816C89.3479 22.3187 87.7066 26.1646 85.3078 26.1646ZM97.428 10.0245C97.428 8.63748 98.5012 7.56567 99.89 7.56567C101.152 7.56567 102.036 8.51138 102.036 9.70928C101.973 11.2855 100.837 12.1681 99.5112 12.1681H99.4481C98.2487 12.1681 97.428 11.2855 97.428 10.0245ZM93.893 29.0648H98.1856L101.089 13.9335H96.7968L93.893 29.0648ZM122.174 14.0595C122.174 14.0595 119.522 20.8056 118.323 24.4623H118.26C118.197 23.2644 117.187 14.0595 117.187 14.0595H112.705L115.293 27.9299C115.356 28.2452 115.293 28.4343 115.23 28.6235C114.725 29.5692 113.904 30.5149 112.894 31.2084C112.073 31.7758 111.19 32.1541 110.495 32.4063L111.695 36C112.578 35.8109 114.346 35.1173 115.861 33.6673C117.818 31.8389 119.585 29.0018 121.479 25.2189L126.719 14.0595H122.174Z" fill="#A29FB2"></path>
  </symbol>
  <symbol fill="none" xmlns="http://www.w3.org/2000/svg" viewBox="0 0 119 36" id="amazon">
    <path fill-rule="evenodd" clip-rule="evenodd" d="M17.6563 17.2328C17.5663 17.1025 17.4752 16.9766 17.385 16.852C16.8216 16.0739 16.2932 15.3441 16.2932 13.8689V8.14426C16.2932 7.94084 16.2944 7.73909 16.2957 7.53915V7.53906C16.3092 5.36073 16.3215 3.39708 14.693 1.82951C13.2706 0.472131 10.9593 0 9.18132 0C5.68466 0 1.77314 1.29836 0.943423 5.60656C0.884158 6.07869 1.18049 6.31475 1.47681 6.37377L5.03274 6.72787C5.38833 6.72787 5.62539 6.37377 5.68466 6.07869C5.98098 4.60328 7.22556 3.89508 8.64793 3.89508C9.41838 3.89508 10.2481 4.19016 10.7222 4.83934C11.1744 5.4898 11.1581 6.30994 11.1426 7.08397V7.08399C11.1398 7.22292 11.1371 7.36037 11.1371 7.49508V7.96721C10.8449 7.99954 10.5405 8.03076 10.2276 8.06285C8.25615 8.26505 5.95021 8.50156 4.26229 9.26557C1.95094 10.2689 0.291504 12.2754 0.291504 15.2852C0.291504 19.0623 2.72139 21.0098 5.80319 21.0098C8.41086 21.0098 9.83323 20.4197 11.8483 18.3541C11.9316 18.4749 12.0082 18.5879 12.081 18.6953C12.5773 19.4278 12.8964 19.8988 13.9818 20.7738C14.2781 20.8918 14.6337 20.8918 14.8708 20.7148C15.582 20.0656 16.9451 18.8852 17.6563 18.2951C17.9526 18 17.8933 17.5869 17.6563 17.2328ZM10.4259 15.6393C9.83323 16.6426 8.94425 17.2918 7.87748 17.2918C6.45511 17.2918 5.62539 16.2295 5.62539 14.6361C5.62539 11.5082 8.41086 10.977 11.0778 10.977V11.7443L11.0799 11.794C11.1383 13.1883 11.1873 14.3562 10.4259 15.6393ZM58.3511 8.12187C58.664 8.08978 58.9684 8.05856 59.2606 8.02623L59.3791 7.61311C59.3791 7.53339 59.3796 7.45271 59.3801 7.37134V7.37116C59.385 6.54895 59.3903 5.65545 58.905 4.95738C58.4309 4.3082 57.6012 4.01311 56.8307 4.01311C55.4083 4.01311 54.1638 4.72131 53.8674 6.19672C53.8082 6.4918 53.5711 6.8459 53.2155 6.8459L49.6596 6.4918C49.3633 6.43279 49.0669 6.19672 49.1262 5.72459C49.9559 1.41639 53.8674 0.118033 57.3641 0.118033C59.1421 0.118033 61.4534 0.590164 62.8758 1.94754C64.5042 3.51511 64.492 5.47876 64.4784 7.6571L64.4784 7.65899C64.4772 7.85834 64.4759 8.05949 64.4759 8.26229V13.9869C64.4759 15.4621 65.0044 16.192 65.5677 16.9701L65.5679 16.9703C65.6581 17.0948 65.7491 17.2206 65.8391 17.3508C66.0761 17.6459 66.1354 18.059 65.8391 18.2951C65.1279 18.8852 63.7648 20.0656 63.0536 20.7148C62.8165 20.8918 62.4609 20.8918 62.1646 20.7738C61.0792 19.8988 60.7601 19.4278 60.2638 18.6953C60.191 18.5879 60.1144 18.4749 60.031 18.3541C58.016 20.4197 56.5936 21.0098 53.986 21.0098C50.9042 21.0098 48.4743 19.0623 48.4743 15.2852C48.4743 12.3344 50.0744 10.3279 52.3858 9.32459C54.0737 8.56058 56.3797 8.32407 58.3511 8.12187ZM56.0603 17.2918C57.0678 17.2918 58.016 16.6426 58.6087 15.6393C59.2685 14.4347 59.2651 13.3317 59.2612 12.0475V12.0471V12.0466C59.2609 11.947 59.2606 11.8462 59.2606 11.7443V10.977C56.5936 10.977 53.8082 11.5082 53.8082 14.6361C53.8082 16.2295 54.6379 17.2918 56.0603 17.2918ZM24.8866 20.7148H21.2122C20.8566 20.6557 20.5603 20.4197 20.501 20.0656V1.23934C20.501 0.885246 20.7973 0.590164 21.2122 0.590164H24.6496C25.0052 0.64918 25.3015 0.885246 25.3015 1.23934V3.71803H25.3608C26.309 1.35738 27.9684 0.236066 30.2205 0.236066C32.4726 0.236066 33.9543 1.35738 34.9618 3.71803C35.8507 1.35738 37.8658 0.236066 40.0586 0.236066C41.5995 0.236066 43.3182 0.885246 44.3257 2.30164C45.3435 3.66986 45.3125 5.56022 45.2835 7.33757V7.33767V7.33777V7.33787V7.33797C45.2787 7.63041 45.2739 7.91979 45.2739 8.20328V20.0656C45.2739 20.4197 44.9776 20.7148 44.5628 20.7148H40.8883C40.5327 20.7148 40.2364 20.4197 40.2364 20.0656V10.0918C40.2364 9.94689 40.2382 9.76748 40.2403 9.566C40.2499 8.61872 40.2645 7.18347 40.1179 6.55082C39.8808 5.31148 39.0511 4.95738 37.9843 4.95738C37.0953 4.95738 36.1471 5.54754 35.7915 6.4918C35.4209 7.3352 35.4286 8.69651 35.4345 9.73466C35.4352 9.85881 35.4359 9.97833 35.4359 10.0918V20.0656C35.4359 20.4197 35.1396 20.7148 34.7247 20.7148H31.0503C30.6947 20.7148 30.3983 20.4197 30.3983 20.0656V10.0918C30.3983 9.86989 30.4022 9.63767 30.4062 9.39972V9.39964V9.39956V9.39948V9.39939C30.4403 7.35934 30.4814 4.89836 28.1462 4.89836C25.5868 4.89836 25.5928 7.67039 25.5974 9.82391C25.5976 9.91438 25.5978 10.0038 25.5978 10.0918V20.0656C25.5978 20.4197 25.3015 20.7148 24.8866 20.7148ZM82.0778 15.6393C79.9442 14.459 77.5143 14.1049 75.203 14.1639L81.4851 5.25246C82.0778 4.42623 82.3741 3.9541 82.3741 3.54098V1.23934C82.3741 0.82623 82.0778 0.590164 81.6629 0.590164H69.5728C69.2172 0.590164 68.9208 0.885246 68.9208 1.23934V3.89508C68.9208 4.3082 69.2172 4.54426 69.632 4.54426H75.9142L68.6838 14.8721C68.2689 15.5213 68.2689 16.2885 68.2689 16.7016V19.4164C68.2689 19.8295 68.6838 20.2426 69.0986 20.0066C73.188 17.823 78.107 18.059 81.8407 20.0066C82.3148 20.2426 82.7297 19.7705 82.7297 19.4164V16.5246C82.6704 16.2885 82.5519 15.8754 82.0778 15.6393ZM68.743 24.3738C68.0319 24.4328 67.9726 23.8426 68.5653 23.4295C72.4768 20.6557 78.996 21.482 79.7072 22.4852C80.4776 23.3705 79.4701 29.8623 75.7956 32.9311C75.2622 33.4033 74.7289 33.1672 74.9659 32.518L75.0085 32.412L75.0086 32.4119C75.8585 30.297 77.6772 25.7714 76.8031 24.6689C75.949 23.5915 71.3195 24.0941 69.0131 24.3445L68.743 24.3738ZM49.1262 31.1607C56.7714 31.1607 65.1871 29.5672 72.8916 26.3213C74.0769 25.7902 75.0252 27.0295 73.8399 27.9738C66.9651 32.9902 56.9492 35.7049 48.3558 35.7049C36.3249 35.7049 25.4793 31.2787 17.2414 23.9016C16.5895 23.3115 17.1821 22.4852 17.9526 22.9574C26.8424 28.0918 37.8065 31.1607 49.1262 31.1607ZM84.5076 10.623C84.5076 4.78033 87.4117 0.236066 92.7455 0.236066C98.198 0.236066 101.102 4.89836 101.161 10.8C101.161 16.5246 97.9016 21.0689 92.7455 21.0689C87.4117 21.0689 84.5076 16.4066 84.5076 10.623ZM89.9007 10.1683C89.8996 12.5209 89.8973 17.2328 92.7455 17.2328C95.5903 17.2328 95.7088 13.2787 95.7681 10.859C95.7681 9.32459 95.7088 7.37705 95.2347 5.90164C94.8198 4.60328 93.9901 4.07213 92.8048 4.07213C90.0786 4.07213 89.9008 7.73115 89.9008 10.0328L89.9007 10.1683ZM108.747 4.01311C109.755 1.47541 111.177 0.236066 113.725 0.236066C115.326 0.236066 116.926 0.82623 118.052 2.5377C119 4.01311 119 6.55082 119 8.38033V20.1836C118.941 20.5377 118.645 20.7738 118.289 20.7738H114.614C114.259 20.7738 114.022 20.4787 113.963 20.1836V9.97377C113.963 9.81549 113.964 9.65166 113.965 9.48407C113.983 7.46459 114.004 4.89836 111.651 4.89836C110.762 4.89836 109.933 5.48852 109.518 6.37377C108.984 7.49508 108.925 8.67541 108.925 9.91475V20.0066C108.925 20.3607 108.629 20.6557 108.214 20.6557H104.539C104.184 20.6557 103.887 20.3607 103.887 20.0066V1.23934C103.947 0.944262 104.243 0.64918 104.599 0.64918H107.977C108.273 0.64918 108.569 0.885246 108.629 1.18033V4.01311H108.747Z" fill="#A29FB2"></path>
  </symbol>
  <symbol fill="none" xmlns="http://www.w3.org/2000/svg" viewBox="0 0 44 54" id="analytics">
    <path d="M27 2H12C6.47715 2 2 6.47715 2 12V42C2 47.5228 6.47715 52 12 52H32C37.5228 52 42 47.5228 42 42V17M27 2V12C27 14.7614 29.2386 17 32 17H42M27 2L42 17M12 42V37M22 42L22 27M32 42L32 32" stroke="#1977FB" stroke-width="3" stroke-linecap="round"></path>
  </symbol>
  <symbol fill="none" xmlns="http://www.w3.org/2000/svg" viewBox="0 0 58 48" id="collaboration">
    <path d="M1.5 46.5V41.5C1.5 35.9772 5.97715 31.5 11.5 31.5H31.5C37.0228 31.5 41.5 35.9772 41.5 41.5V46.5M56.5 46.5V41.5C56.5 35.9772 52.0228 31.5 46.5 31.5H45.875M35.8652 1.51982C36.0751 1.50667 36.2868 1.5 36.5 1.5C42.0228 1.5 46.5 5.97715 46.5 11.5C46.5 17.0228 42.0228 21.5 36.5 21.5C36.2868 21.5 36.0751 21.4933 35.8652 21.4802M31.5 11.5C31.5 17.0228 27.0228 21.5 21.5 21.5C15.9772 21.5 11.5 17.0228 11.5 11.5C11.5 5.97715 15.9772 1.5 21.5 1.5C27.0228 1.5 31.5 5.97715 31.5 11.5Z" stroke="#FCAF1A" stroke-width="3" stroke-linecap="round"></path>
  </symbol>
  <symbol fill="none" xmlns="http://www.w3.org/2000/svg" viewBox="0 0 44 54" id="management">
    <path d="M19.5 25.5C18.6716 25.5 18 26.1716 18 27C18 27.8284 18.6716 28.5 19.5 28.5V25.5ZM27 28.5C27.8284 28.5 28.5 27.8284 28.5 27C28.5 26.1716 27.8284 25.5 27 25.5V28.5ZM19.5 35.5C18.6716 35.5 18 36.1716 18 37C18 37.8284 18.6716 38.5 19.5 38.5V35.5ZM32 38.5C32.8284 38.5 33.5 37.8284 33.5 37C33.5 36.1716 32.8284 35.5 32 35.5V38.5ZM12 25.5C11.1716 25.5 10.5 26.1716 10.5 27C10.5 27.8284 11.1716 28.5 12 28.5V25.5ZM12.025 28.5C12.8534 28.5 13.525 27.8284 13.525 27C13.525 26.1716 12.8534 25.5 12.025 25.5V28.5ZM12 35.5C11.1716 35.5 10.5 36.1716 10.5 37C10.5 37.8284 11.1716 38.5 12 38.5V35.5ZM12.025 38.5C12.8534 38.5 13.525 37.8284 13.525 37C13.525 36.1716 12.8534 35.5 12.025 35.5V38.5ZM40.5 17V42H43.5V17H40.5ZM32 50.5H12V53.5H32V50.5ZM3.5 42V17H0.5V42H3.5ZM12 50.5C7.30558 50.5 3.5 46.6944 3.5 42H0.5C0.5 48.3513 5.64873 53.5 12 53.5V50.5ZM40.5 42C40.5 46.6944 36.6944 50.5 32 50.5V53.5C38.3513 53.5 43.5 48.3513 43.5 42H40.5ZM43.5 17C43.5 10.6487 38.3513 5.5 32 5.5V8.5C36.6944 8.5 40.5 12.3056 40.5 17H43.5ZM3.5 17C3.5 12.3056 7.30558 8.5 12 8.5V5.5C5.64873 5.5 0.5 10.6487 0.5 17H3.5ZM15.75 3.5H28.25V0.5H15.75V3.5ZM30.5 5.75V8.25H33.5V5.75H30.5ZM28.25 10.5H15.75V13.5H28.25V10.5ZM13.5 8.25V5.75H10.5V8.25H13.5ZM15.75 10.5C14.5074 10.5 13.5 9.49264 13.5 8.25H10.5C10.5 11.1495 12.8505 13.5 15.75 13.5V10.5ZM30.5 8.25C30.5 9.49264 29.4926 10.5 28.25 10.5V13.5C31.1495 13.5 33.5 11.1495 33.5 8.25H30.5ZM28.25 3.5C29.4926 3.5 30.5 4.50736 30.5 5.75H33.5C33.5 2.85051 31.1495 0.5 28.25 0.5V3.5ZM15.75 0.5C12.8505 0.5 10.5 2.85051 10.5 5.75H13.5C13.5 4.50736 14.5074 3.5 15.75 3.5V0.5ZM19.5 28.5H27V25.5H19.5V28.5ZM19.5 38.5H32V35.5H19.5V38.5ZM12 28.5H12.025V25.5H12V28.5ZM12 38.5H12.025V35.5H12V38.5Z" fill="#00B627"></path>
  </symbol>
  <symbol fill="none" xmlns="http://www.w3.org/2000/svg" viewBox="0 0 54 54" id="reminders">
    <path d="M3.35176 51.0348C2.81871 51.669 2.90068 52.6152 3.53483 53.1482C4.16899 53.6813 5.11519 53.5993 5.64824 52.9652L3.35176 51.0348ZM0.93934 8.43934C0.353553 9.02513 0.353553 9.97487 0.93934 10.5607C1.52513 11.1464 2.47487 11.1464 3.06066 10.5607L0.93934 8.43934ZM10.5607 3.06066C11.1464 2.47487 11.1464 1.52513 10.5607 0.93934C9.97487 0.353553 9.02513 0.353553 8.43934 0.93934L10.5607 3.06066ZM48.3518 52.9652C48.8848 53.5993 49.831 53.6813 50.4652 53.1482C51.0993 52.6152 51.1813 51.669 50.6482 51.0348L48.3518 52.9652ZM45.5607 0.93934C44.9749 0.353553 44.0251 0.353553 43.4393 0.93934C42.8536 1.52513 42.8536 2.47487 43.4393 3.06066L45.5607 0.93934ZM50.9393 10.5607C51.5251 11.1464 52.4749 11.1464 53.0607 10.5607C53.6464 9.97487 53.6464 9.02513 53.0607 8.43934L50.9393 10.5607ZM18.0609 27.0396C17.4753 26.4537 16.5255 26.4534 15.9396 27.0391C15.3537 27.6247 15.3534 28.5745 15.9391 29.1604L18.0609 27.0396ZM38.0561 23.8152C38.6444 23.2319 38.6485 22.2822 38.0652 21.6939C37.4819 21.1056 36.5322 21.1015 35.9439 21.6848L38.0561 23.8152ZM23.3968 34.5L22.3359 35.5604L22.3458 35.5702L23.3968 34.5ZM25.1486 34.5L26.1997 35.5702L26.2047 35.5652L25.1486 34.5ZM6 28.25C6 16.652 15.402 7.25 27 7.25V4.25C13.7452 4.25 3 14.9952 3 28.25H6ZM27 7.25C38.598 7.25 48 16.652 48 28.25H51C51 14.9952 40.2548 4.25 27 4.25V7.25ZM3.06066 10.5607L10.5607 3.06066L8.43934 0.93934L0.93934 8.43934L3.06066 10.5607ZM43.4393 3.06066L50.9393 10.5607L53.0607 8.43934L45.5607 0.93934L43.4393 3.06066ZM41.7617 45.1251L48.3518 52.9652L50.6482 51.0348L44.0581 43.1947L41.7617 45.1251ZM48 28.25C48 34.0494 45.6511 39.2973 41.8492 43.0992L43.9706 45.2206C48.3121 40.8791 51 34.877 51 28.25H48ZM41.8492 43.0992C38.0473 46.9011 32.7994 49.25 27 49.25V52.25C33.627 52.25 39.6291 49.5621 43.9706 45.2206L41.8492 43.0992ZM5.64824 52.9652L12.2383 45.1251L9.94186 43.1947L3.35176 51.0348L5.64824 52.9652ZM27 49.25C21.2006 49.25 15.9527 46.9011 12.1508 43.0992L10.0294 45.2206C14.3709 49.5621 20.373 52.25 27 52.25V49.25ZM12.1508 43.0992C8.34886 39.2973 6 34.0494 6 28.25H3C3 34.877 5.68793 40.8791 10.0294 45.2206L12.1508 43.0992ZM15.9391 29.1604L22.3359 35.5604L24.4578 33.4396L18.0609 27.0396L15.9391 29.1604ZM26.2047 35.5652L38.0561 23.8152L35.9439 21.6848L24.0925 33.4348L26.2047 35.5652ZM22.3458 35.5702C23.4156 36.6209 25.1299 36.6209 26.1997 35.5702L24.0976 33.4298C24.1948 33.3343 24.3507 33.3343 24.4479 33.4298L22.3458 35.5702Z" fill="#D400F9"></path>
  </symbol>
  <symbol fill="none" xmlns="http://www.w3.org/2000/svg" viewBox="0 0 44 48" id="ui">
    <path d="M24.5 38.6875L30.0972 44.1848C30.5227 44.6027 31.2046 44.6027 31.63 44.1848L42 34M2 46.5V41.5C2 35.9772 6.47715 31.5 12 31.5H17M32 11.5C32 17.0228 27.5228 21.5 22 21.5C16.4772 21.5 12 17.0228 12 11.5C12 5.97715 16.4772 1.5 22 1.5C27.5228 1.5 32 5.97715 32 11.5Z" stroke="#6826F7" stroke-width="3" stroke-linecap="round"></path>
  </symbol>
  <symbol fill="none" xmlns="http://www.w3.org/2000/svg" viewBox="0 0 54 54" id="workflow">
    <path d="M38.0511 42.4477C37.46 41.8672 36.5103 41.8758 35.9298 42.4668C35.3493 43.0578 35.3579 44.0075 35.9489 44.588L38.0511 42.4477ZM53.0511 40.5702C53.6421 39.9897 53.6507 39.04 53.0702 38.4489C52.4897 37.8579 51.54 37.8493 50.9489 38.4298L53.0511 40.5702ZM41.7976 48.2298L40.7466 49.3L41.7976 48.2298ZM43.1115 48.2298L44.1625 49.3L43.1115 48.2298ZM27 53.5C27.8284 53.5 28.5 52.8284 28.5 52C28.5 51.1716 27.8284 50.5 27 50.5V53.5ZM50.5 27C50.5 27.8284 51.1716 28.5 52 28.5C52.8284 28.5 53.5 27.8284 53.5 27H50.5ZM28.5 14.5C28.5 13.6716 27.8284 13 27 13C26.1716 13 25.5 13.6716 25.5 14.5H28.5ZM28.0114 29.3672L27.1182 30.5723H27.1182L28.0114 29.3672ZM32.3568 34.4551C33.0224 34.9484 33.9618 34.8087 34.4551 34.1432C34.9484 33.4776 34.8087 32.5382 34.1432 32.0449L32.3568 34.4551ZM35.9489 44.588L40.7466 49.3L42.8487 47.1596L38.0511 42.4477L35.9489 44.588ZM44.1625 49.3L53.0511 40.5702L50.9489 38.4298L42.0604 47.1596L44.1625 49.3ZM40.7466 49.3C41.6948 50.2313 43.2143 50.2313 44.1625 49.3L42.0604 47.1596C42.2792 46.9447 42.6299 46.9447 42.8487 47.1596L40.7466 49.3ZM27 50.5C14.0213 50.5 3.5 39.9787 3.5 27H0.5C0.5 41.6355 12.3645 53.5 27 53.5V50.5ZM3.5 27C3.5 14.0213 14.0213 3.5 27 3.5V0.5C12.3645 0.5 0.5 12.3645 0.5 27H3.5ZM27 3.5C39.9787 3.5 50.5 14.0213 50.5 27H53.5C53.5 12.3645 41.6355 0.5 27 0.5V3.5ZM25.5 14.5V27.3588H28.5V14.5H25.5ZM27.1182 30.5723L32.3568 34.4551L34.1432 32.0449L28.9045 28.1622L27.1182 30.5723ZM25.5 27.3588C25.5 28.6258 26.1003 29.8179 27.1182 30.5723L28.9045 28.1622C28.6501 27.9736 28.5 27.6755 28.5 27.3588H25.5Z" fill="#FC4130"></path>
  </symbol>
    <symbol fill="none" xmlns="http://www.w3.org/2000/svg" viewBox="0 0 18 12" id="check-green">
    <path d="M1 5.48591L6.11747 10.512C6.50649 10.8941 7.12987 10.8941 7.51889 10.512L17 1.2002" stroke="#00B627" stroke-width="2" stroke-linecap="round"></path>
  </symbol>
    <symbol fill="none" xmlns="http://www.w3.org/2000/svg" viewBox="0 0 18 12" id="check-orange">
    <path d="M1 5.48591L6.11747 10.512C6.50649 10.8941 7.12987 10.8941 7.51889 10.512L17 1.2002" stroke="#FEDE84" stroke-width="2" stroke-linecap="round"></path>
  </symbol>
  <symbol fill="none" xmlns="http://www.w3.org/2000/svg" viewBox="0 0 50 50" id="airplane">
    <path d="M48.5637 1.41196C46.0822 -1.07073 41.0633 -0.00258808 38.5841 2.47787L32.8251 8.16797C31.6244 9.36928 29.9025 9.89019 28.2365 9.55611L8.11879 5.52191C6.45281 5.18783 4.73092 5.70874 3.53021 6.91005L0.558535 9.88321C-0.468289 10.9106 -0.0132752 12.6646 1.38381 13.0645L22.025 18.9735L12.2574 28.746C11.6267 29.377 10.711 29.6304 9.84519 29.4135L5.45005 28.3123C4.58423 28.0953 3.66854 28.3487 3.03782 28.9798L0.857982 31.1607C-0.275109 32.2943 -0.0873813 34.1827 1.24692 35.073L7.7577 39.4173C8.87434 40.1624 9.83266 41.1212 10.5774 42.2384L14.9195 48.7524C15.8094 50.0874 17.6968 50.2752 18.8299 49.1416L21.0097 46.9606C21.6404 46.3296 21.8937 45.4135 21.6768 44.5472L20.5762 40.1499C20.3594 39.2836 20.6126 38.3675 21.2434 37.7364L31.011 27.9639L36.917 48.6155C37.3167 50.0133 39.0698 50.4685 40.0967 49.4412L43.0683 46.468C44.269 45.2667 44.7897 43.5439 44.4558 41.8771L40.4236 21.7493C40.0897 20.0825 40.6103 18.3597 41.811 17.1584L47.57 11.4683C50.0492 8.98786 51.0451 3.89465 48.5637 1.41196Z" fill="white"></path>
  </symbol>
  <symbol fill="none" xmlns="http://www.w3.org/2000/svg" viewBox="0 0 54 54" id="rocket">
    <path d="M23.0977 37.6835L15.961 30.5468M23.0977 37.6835C23.0977 37.6835 35.587 32.331 42.7237 25.1943C50.8974 17.0205 51.6445 2 51.6445 2C51.6445 2 36.6244 2.7475 28.4502 10.9209C21.3132 18.0572 15.961 30.5468 15.961 30.5468M23.0977 37.6835L27.3181 52L29.6632 51.3716C35.0833 49.9193 38.2781 44.325 36.7749 38.9189L34.7055 31.4495M15.961 30.5468L1.64453 26.3264L2.2729 23.9813C3.72519 18.5613 9.31949 15.3664 14.7256 16.8696L22.1949 18.9389M14.1768 46.6044C10.6085 50.1727 1.68762 51.9569 1.68762 51.9569C1.68762 51.9569 3.47179 43.036 7.04014 39.4677C9.01089 37.4969 12.2061 37.4969 14.1768 39.4677C16.1476 41.4384 16.1476 44.6336 14.1768 46.6044ZM39.156 18.0583C38.1706 19.0436 36.573 19.0436 35.5876 18.0583C34.6023 17.0729 34.6023 15.4753 35.5876 14.4899C36.573 13.5045 38.1706 13.5045 39.156 14.4899C40.1413 15.4753 40.1413 17.0729 39.156 18.0583Z" stroke="#6826F7" stroke-width="3" stroke-linejoin="round"></path>
  </symbol>
  <symbol fill="none" xmlns="http://www.w3.org/2000/svg" viewBox="0 0 54 54" id="paperPlane">
    <path d="M22.13 34.5718L20.8092 35.2827L22.13 34.5718ZM21.377 33.3066L20.2001 34.2366L21.377 33.3066ZM19.4282 31.87L18.7173 33.1908L18.7173 33.1908L19.4282 31.87ZM20.6934 32.623L19.7634 33.7999V33.7999L20.6934 32.623ZM50.2943 12.1156L51.7172 12.5903L50.2943 12.1156ZM51.8455 4.67275L50.4326 5.17627L51.8455 4.67275ZM41.8844 3.70569L42.3591 5.12861L41.8844 3.70569ZM49.3272 2.15448L48.8237 3.56745L49.3272 2.15448ZM10.3196 14.2352L9.84491 12.8122L10.3196 14.2352ZM2.61638 17.8287L3.89407 18.6146L2.61638 17.8287ZM9.26624 26.4002L9.97719 25.0794L9.26624 26.4002ZM2.29468 21.5441L3.6883 20.9893L2.29468 21.5441ZM39.7649 43.6804L38.3419 43.2058L39.7649 43.6804ZM36.1713 51.3836L35.3854 50.1059L36.1713 51.3836ZM27.5998 44.7338L28.9206 44.0228L27.5998 44.7338ZM32.4559 51.7053L33.0107 50.3117L32.4559 51.7053ZM34.005 22.1163C34.5908 21.5305 34.5908 20.5807 34.005 19.995C33.4193 19.4092 32.4695 19.4092 31.8837 19.995L34.005 22.1163ZM48.8714 11.6409L38.3419 43.2058L41.1878 44.1551L51.7172 12.5903L48.8714 11.6409ZM10.7942 15.6581L42.3591 5.12861L41.4097 2.28277L9.84491 12.8122L10.7942 15.6581ZM28.9206 44.0228L23.4508 33.8609L20.8092 35.2827L26.279 45.4447L28.9206 44.0228ZM20.1391 30.5492L9.97719 25.0794L8.55529 27.721L18.7173 33.1908L20.1391 30.5492ZM23.4508 33.8609C23.1236 33.253 22.88 32.7893 22.5539 32.3766L20.2001 34.2366C20.3256 34.3954 20.4335 34.5847 20.8092 35.2827L23.4508 33.8609ZM18.7173 33.1908C19.4153 33.5665 19.6046 33.6744 19.7634 33.7999L21.6234 31.4461C21.2107 31.12 20.747 30.8764 20.1391 30.5492L18.7173 33.1908ZM22.5539 32.3766C22.281 32.0313 21.9687 31.719 21.6234 31.4461L19.7634 33.7999C19.9255 33.928 20.072 34.0745 20.2001 34.2366L22.5539 32.3766ZM51.7172 12.5903C52.3852 10.5878 52.9206 8.98759 53.2186 7.72087C53.5113 6.47649 53.6512 5.27119 53.2585 4.16924L50.4326 5.17627C50.521 5.42458 50.5627 5.90984 50.2983 7.03388C50.0391 8.1356 49.5583 9.58172 48.8714 11.6409L51.7172 12.5903ZM42.3591 5.12861C44.4183 4.44169 45.8644 3.96087 46.9661 3.7017C48.0902 3.43727 48.5754 3.47896 48.8237 3.56745L49.8308 0.741515C48.7288 0.348834 47.5235 0.488676 46.2791 0.781414C45.0124 1.07941 43.4122 1.61477 41.4097 2.28277L42.3591 5.12861ZM53.2585 4.16924C52.6885 2.56987 51.4301 1.31145 49.8308 0.741515L48.8237 3.56745C49.5744 3.83496 50.165 4.42556 50.4326 5.17627L53.2585 4.16924ZM9.84491 12.8122C7.56953 13.5713 5.76506 14.1717 4.43798 14.7501C3.15012 15.3115 1.99375 15.9778 1.33869 17.0429L3.89407 18.6146C4.03132 18.3914 4.42292 18.0293 5.63676 17.5002C6.81138 16.9882 8.46235 16.4359 10.7942 15.6581L9.84491 12.8122ZM9.97719 25.0794C7.81347 23.9147 6.28194 23.0887 5.21279 22.3837C4.10788 21.6551 3.78488 21.2319 3.6883 20.9893L0.901063 22.0989C1.36364 23.2609 2.38895 24.1152 3.56129 24.8882C4.7694 25.6849 6.44407 26.5846 8.55529 27.721L9.97719 25.0794ZM1.33869 17.0429C0.402736 18.5647 0.240271 20.4392 0.901063 22.0989L3.6883 20.9893C3.37813 20.2102 3.45419 19.3298 3.89407 18.6146L1.33869 17.0429ZM38.3419 43.2058C37.5641 45.5376 37.0118 47.1886 36.4998 48.3632C35.9707 49.5771 35.6086 49.9687 35.3854 50.1059L36.9571 52.6613C38.0222 52.0062 38.6885 50.8499 39.2499 49.562C39.8283 48.2349 40.4287 46.4305 41.1878 44.1551L38.3419 43.2058ZM26.279 45.4447C27.4154 47.5559 28.3151 49.2306 29.1118 50.4387C29.8848 51.611 30.7391 52.6364 31.9011 53.0989L33.0107 50.3117C32.7681 50.2151 32.3449 49.8921 31.6163 48.7872C30.9113 47.7181 30.0853 46.1865 28.9206 44.0228L26.279 45.4447ZM35.3854 50.1059C34.6702 50.5458 33.7898 50.6219 33.0107 50.3117L31.9011 53.0989C33.5608 53.7597 35.4353 53.5973 36.9571 52.6613L35.3854 50.1059ZM31.8837 19.995L20.1239 31.7547L22.2453 33.8761L34.005 22.1163L31.8837 19.995Z" fill="#6826F7"></path>
  </symbol>

</svg>



  